<svg width="197" height="77" viewBox="0 0 197 77" fill="none" xmlns="http://www.w3.org/2000/svg">
<path d="M29.064 22.688V30.36H13.048V38.648H25.032V46.096H13.048V62H3.472V22.688H29.064ZM48.321 62.448C45.2597 62.448 42.497 61.7947 40.033 60.488C37.6063 59.1813 35.6837 57.3147 34.265 54.888C32.8837 52.4613 32.193 49.624 32.193 46.376C32.193 43.1653 32.9023 40.3467 34.321 37.92C35.7397 35.456 37.681 33.5707 40.145 32.264C42.609 30.9573 45.3717 30.304 48.433 30.304C51.4943 30.304 54.257 30.9573 56.721 32.264C59.185 33.5707 61.1263 35.456 62.545 37.92C63.9637 40.3467 64.673 43.1653 64.673 46.376C64.673 49.5867 63.945 52.424 62.489 54.888C61.0703 57.3147 59.1103 59.1813 56.609 60.488C54.145 61.7947 51.3823 62.448 48.321 62.448ZM48.321 54.16C50.1503 54.16 51.6997 53.488 52.969 52.144C54.2757 50.8 54.929 48.8773 54.929 46.376C54.929 43.8747 54.2943 41.952 53.025 40.608C51.793 39.264 50.2623 38.592 48.433 38.592C46.5663 38.592 45.017 39.264 43.785 40.608C42.553 41.9147 41.937 43.8373 41.937 46.376C41.937 48.8773 42.5343 50.8 43.729 52.144C44.961 53.488 46.4917 54.16 48.321 54.16ZM83.9773 62.448C80.9159 62.448 78.1533 61.7947 75.6893 60.488C73.2626 59.1813 71.3399 57.3147 69.9213 54.888C68.5399 52.4613 67.8493 49.624 67.8493 46.376C67.8493 43.1653 68.5586 40.3467 69.9772 37.92C71.3959 35.456 73.3373 33.5707 75.8013 32.264C78.2653 30.9573 81.0279 30.304 84.0893 30.304C87.1506 30.304 89.9133 30.9573 92.3773 32.264C94.8413 33.5707 96.7826 35.456 98.2013 37.92C99.6199 40.3467 100.329 43.1653 100.329 46.376C100.329 49.5867 99.6013 52.424 98.1453 54.888C96.7266 57.3147 94.7666 59.1813 92.2653 60.488C89.8013 61.7947 87.0386 62.448 83.9773 62.448ZM83.9773 54.16C85.8066 54.16 87.3559 53.488 88.6253 52.144C89.9319 50.8 90.5853 48.8773 90.5853 46.376C90.5853 43.8747 89.9506 41.952 88.6813 40.608C87.4493 39.264 85.9186 38.592 84.0893 38.592C82.2226 38.592 80.6733 39.264 79.4413 40.608C78.2093 41.9147 77.5933 43.8373 77.5933 46.376C77.5933 48.8773 78.1906 50.8 79.3853 52.144C80.6173 53.488 82.1479 54.16 83.9773 54.16ZM103.506 46.32C103.506 43.1093 104.103 40.2907 105.298 37.864C106.53 35.4373 108.191 33.5707 110.282 32.264C112.372 30.9573 114.706 30.304 117.282 30.304C119.335 30.304 121.202 30.7333 122.882 31.592C124.599 32.4507 125.943 33.608 126.914 35.064V20.56H136.49V62H126.914V57.52C126.018 59.0133 124.73 60.208 123.05 61.104C121.407 62 119.484 62.448 117.282 62.448C114.706 62.448 112.372 61.7947 110.282 60.488C108.191 59.144 106.53 57.2587 105.298 54.832C104.103 52.368 103.506 49.5307 103.506 46.32ZM126.914 46.376C126.914 43.9867 126.242 42.1013 124.898 40.72C123.591 39.3387 121.986 38.648 120.082 38.648C118.178 38.648 116.554 39.3387 115.21 40.72C113.903 42.064 113.25 43.9307 113.25 46.32C113.25 48.7093 113.903 50.6133 115.21 52.032C116.554 53.4133 118.178 54.104 120.082 54.104C121.986 54.104 123.591 53.4133 124.898 52.032C126.242 50.6507 126.914 48.7653 126.914 46.376ZM152.993 20.56V62H143.417V20.56H152.993ZM191.853 30.752L172.253 76.84H161.949L169.117 60.936L156.405 30.752H167.101L174.325 50.296L181.493 30.752H191.853Z" fill="#6D61F2"/>
<path d="M75.9405 69.7035C75.9405 69.7035 68.4662 73.9287 58.7375 69.7035" stroke="#FFDE0A" stroke-width="10" stroke-linecap="round"/>
</svg>
