<svg width="321" height="236" viewBox="0 0 321 236" fill="none" xmlns="http://www.w3.org/2000/svg">
<g clip-path="url(#clip0)">
<path opacity="0.2" d="M42.8491 119.857C38.6405 121.129 34.7013 124.207 33.6499 128.478C32.4475 133.387 35.2203 138.335 35.6212 143.374C36.9156 159.887 13.4249 171.537 16.776 187.757C18.1066 194.207 23.4848 198.951 28.7842 202.87C37.2737 209.129 46.693 214.658 57.1243 216.219C72.9567 218.591 89.4988 211.619 104.888 216.025C117.3 219.58 126.798 229.998 139.125 233.842C148.508 236.769 158.617 235.616 168.365 234.43C173.622 233.793 179.128 233.057 183.37 229.903C191.255 224.032 191.751 212.437 197.031 204.128C205.185 191.315 223.064 188.799 238.056 191.289C253.047 193.779 267.605 199.91 282.793 199.411C286.039 199.302 289.364 198.862 292.196 197.269C295.639 195.333 297.965 191.923 300.022 188.549C312.876 167.38 319.932 143.201 320.48 118.441C320.569 114.187 320.418 109.748 318.417 105.993C315.887 101.242 310.831 98.4004 305.798 96.4882C293.711 91.8886 280.359 91.1363 268.515 85.9486C257.091 80.9449 247.84 72.1696 237.891 64.6492C218.067 49.6915 195.088 39.458 170.708 34.7289C164.994 33.625 159.064 32.8365 153.387 34.1112C146.846 35.5798 141.208 39.657 136.139 44.0464C122.652 55.7227 111.843 70.1293 99.4142 82.926C90.8403 91.751 81.5041 99.802 71.5144 106.985C66.9148 110.3 62.0261 114.236 56.9008 116.687C52.2093 118.928 47.8101 118.363 42.8491 119.857Z" fill="#6D61F2"/>
<path d="M102.966 16.0842C102.966 16.0842 90.2675 32.9482 99.3517 52.6049C108.436 72.2616 83.5193 103.844 83.5193 103.844" stroke="#535461" stroke-width="2" stroke-miterlimit="10"/>
<path d="M108.659 9.77285C107.651 14.1129 102.824 16.6985 102.824 16.6985C102.824 16.6985 99.6375 12.2468 100.646 7.90673C101.655 3.56669 104.26 0.465251 106.481 0.981062C108.702 1.49687 109.668 5.43281 108.659 9.77285Z" fill="#8ED16F"/>
<path d="M105.418 9.01659C105.735 7.65402 105.578 6.4531 105.067 6.33425C104.556 6.21539 103.885 7.22362 103.568 8.58618C103.251 9.94875 103.408 11.1497 103.919 11.2685C104.43 11.3874 105.101 10.3792 105.418 9.01659Z" fill="#8ED16F"/>
<path opacity="0.3" d="M105.418 9.01659C105.735 7.65402 105.578 6.4531 105.067 6.33425C104.556 6.21539 103.885 7.22362 103.568 8.58618C103.251 9.94875 103.408 11.1497 103.919 11.2685C104.43 11.3874 105.101 10.3792 105.418 9.01659Z" fill="black"/>
<path d="M106.465 29.055C102.272 30.5663 97.479 27.9182 97.479 27.9182C97.479 27.9182 99.4831 22.8225 103.679 21.3145C107.874 19.8065 111.892 20.3289 112.664 22.4513C113.436 24.5737 110.657 27.5437 106.465 29.055Z" fill="#8ED16F"/>
<path d="M105.287 25.7089C106.602 25.2332 107.524 24.448 107.345 23.9551C107.167 23.4622 105.956 23.4482 104.641 23.9238C103.326 24.3995 102.405 25.1847 102.583 25.6776C102.761 26.1705 103.972 26.1845 105.287 25.7089Z" fill="#8ED16F"/>
<path opacity="0.3" d="M105.287 25.7089C106.602 25.2332 107.524 24.448 107.345 23.9551C107.167 23.4622 105.956 23.4482 104.641 23.9238C103.326 24.3995 102.405 25.1847 102.583 25.6776C102.761 26.1705 103.972 26.1845 105.287 25.7089Z" fill="black"/>
<path d="M105.489 44.4209C101.297 45.9322 96.5033 43.2841 96.5033 43.2841C96.5033 43.2841 98.5074 38.1885 102.703 36.6804C106.898 35.1724 110.916 35.6948 111.688 37.8172C112.461 39.9396 109.681 42.9129 105.489 44.4209Z" fill="#8ED16F"/>
<path d="M104.36 41.307C105.676 40.8331 106.599 40.049 106.422 39.5556C106.244 39.0622 105.033 39.0464 103.717 39.5203C102.401 39.9942 101.478 40.7783 101.655 41.2717C101.833 41.7651 103.044 41.7809 104.36 41.307Z" fill="#8ED16F"/>
<path opacity="0.3" d="M104.36 41.307C105.676 40.8331 106.599 40.049 106.422 39.5556C106.244 39.0622 105.033 39.0464 103.717 39.5203C102.401 39.9942 101.478 40.7783 101.655 41.2717C101.833 41.7651 103.044 41.7809 104.36 41.307Z" fill="black"/>
<path d="M110.387 62.448C106.195 63.9593 101.402 61.3113 101.402 61.3113C101.402 61.3113 103.406 56.2156 107.601 54.7076C111.797 53.1996 115.815 53.7219 116.587 55.8443C117.359 57.9667 114.58 60.9466 110.387 62.448Z" fill="#8ED16F"/>
<path d="M109.259 59.3421C110.576 58.8682 111.499 58.0841 111.321 57.5907C111.143 57.0973 109.932 57.0815 108.616 57.5554C107.3 58.0293 106.377 58.8134 106.554 59.3068C106.732 59.8002 107.943 59.816 109.259 59.3421Z" fill="#8ED16F"/>
<path opacity="0.3" d="M109.259 59.3421C110.576 58.8682 111.499 58.0841 111.321 57.5907C111.143 57.0973 109.932 57.0815 108.616 57.5554C107.3 58.0293 106.377 58.8134 106.554 59.3068C106.732 59.8002 107.943 59.816 109.259 59.3421Z" fill="black"/>
<path d="M107.201 78.9342C103.008 80.4455 98.215 77.7975 98.215 77.7975C98.215 77.7975 100.219 72.7018 104.415 71.1938C108.61 69.6858 112.628 70.2082 113.4 72.3306C114.172 74.4529 111.396 77.4262 107.201 78.9342Z" fill="#8ED16F"/>
<path d="M106.081 75.5482C107.396 75.0726 108.318 74.2874 108.14 73.7945C107.961 73.3015 106.751 73.2875 105.436 73.7632C104.121 74.2388 103.199 75.024 103.378 75.5169C103.556 76.0099 104.766 76.0239 106.081 75.5482Z" fill="#8ED16F"/>
<path opacity="0.3" d="M106.081 75.5482C107.396 75.0726 108.318 74.2874 108.14 73.7945C107.961 73.3015 106.751 73.2875 105.436 73.7632C104.121 74.2388 103.199 75.024 103.378 75.5169C103.556 76.0099 104.766 76.0239 106.081 75.5482Z" fill="black"/>
<path d="M87.5374 33.4213C90.6323 36.6279 96.1025 36.3782 96.1025 36.3782C96.1025 36.3782 96.5526 30.9211 93.4577 27.7145C90.3628 24.508 86.5287 23.1872 84.8926 24.7577C83.2565 26.3281 84.4425 30.2147 87.5374 33.4213Z" fill="#8ED16F"/>
<path d="M92.3746 32.2834C92.7518 31.9192 92.27 30.808 91.2984 29.8015C90.3268 28.795 89.2332 28.2743 88.856 28.6385C88.4787 29.0027 88.9605 30.1139 89.9321 31.1204C90.9038 32.1269 91.9973 32.6476 92.3746 32.2834Z" fill="#8ED16F"/>
<path opacity="0.3" d="M92.3746 32.2834C92.7518 31.9192 92.27 30.808 91.2984 29.8015C90.3268 28.795 89.2332 28.2743 88.856 28.6385C88.4787 29.0027 88.9605 30.1139 89.9321 31.1204C90.9038 32.1269 91.9973 32.6476 92.3746 32.2834Z" fill="black"/>
<path d="M85.7599 84.3421C88.8548 87.5486 94.325 87.299 94.325 87.299C94.325 87.299 94.7751 81.8419 91.6802 78.6353C88.5854 75.4287 84.7513 74.108 83.1151 75.6784C81.479 77.2488 82.665 81.1355 85.7599 84.3421Z" fill="#8ED16F"/>
<path d="M90.5926 83.2086C90.9698 82.8444 90.488 81.7332 89.5164 80.7267C88.5448 79.7202 87.4513 79.1995 87.074 79.5637C86.6967 79.9279 87.1785 81.0391 88.1502 82.0456C89.1218 83.0521 90.2153 83.5728 90.5926 83.2086Z" fill="#8ED16F"/>
<path opacity="0.3" d="M90.5926 83.2086C90.9698 82.8444 90.488 81.7332 89.5164 80.7267C88.5448 79.7202 87.4513 79.1995 87.074 79.5637C86.6967 79.9279 87.1785 81.0391 88.1502 82.0456C89.1218 83.0521 90.2153 83.5728 90.5926 83.2086Z" fill="black"/>
<path d="M89.8635 51.4188C93.852 53.4098 98.9214 51.34 98.9214 51.34C98.9214 51.34 97.5251 46.0472 93.5399 44.0562C89.5546 42.0653 85.4971 42.085 84.4819 44.1351C83.4667 46.1852 85.875 49.4279 89.8635 51.4188Z" fill="#8ED16F"/>
<path d="M94.0323 48.7227C94.2665 48.2535 93.4415 47.3668 92.1898 46.7421C90.938 46.1175 89.7334 45.9915 89.4993 46.4607C89.2651 46.9299 90.0901 47.8166 91.3418 48.4413C92.5936 49.0659 93.7982 49.1919 94.0323 48.7227Z" fill="#8ED16F"/>
<path opacity="0.3" d="M94.0323 48.7227C94.2665 48.2535 93.4415 47.3668 92.1898 46.7421C90.938 46.1175 89.7334 45.9915 89.4993 46.4607C89.2651 46.9299 90.0901 47.8166 91.3418 48.4413C92.5936 49.0659 93.7982 49.1919 94.0323 48.7227Z" fill="black"/>
<path d="M91.5357 69.3474C95.5242 71.3384 100.594 69.2685 100.594 69.2685C100.594 69.2685 99.1973 63.9757 95.2121 61.9847C91.2269 59.9938 87.1694 60.0135 86.1542 62.0636C85.139 64.1137 87.5636 67.3761 91.5357 69.3474Z" fill="#8ED16F"/>
<path d="M95.7059 66.6536C95.94 66.1844 95.1151 65.2977 93.8633 64.673C92.6116 64.0484 91.407 63.9224 91.1729 64.3916C90.9387 64.8608 91.7637 65.7475 93.0154 66.3722C94.2672 66.9968 95.4718 67.1229 95.7059 66.6536Z" fill="#8ED16F"/>
<path opacity="0.3" d="M95.7059 66.6536C95.94 66.1844 95.1151 65.2977 93.8633 64.673C92.6116 64.0484 91.407 63.9224 91.1729 64.3916C90.9387 64.8608 91.7637 65.7475 93.0154 66.3722C94.2672 66.9968 95.4718 67.1229 95.7059 66.6536Z" fill="black"/>
<path d="M41.8077 52.3322C41.8077 52.3322 64.9994 75.524 51.907 109.939C38.8146 144.354 74.3497 201.582 74.3497 201.582C74.3497 201.582 73.9686 201.526 73.2623 201.402C25.6237 192.994 1.96864 138.515 28.4491 98.0455C38.2824 82.9983 46.381 65.349 41.8077 52.3322Z" fill="#8ED16F"/>
<path d="M0.5 146.134C0.5 146.134 26.9641 141.919 29.3756 165.637C31.7871 189.354 80.2635 192.643 80.2635 192.643C80.2635 192.643 79.9349 192.859 79.3534 193.247C39.3271 219.531 1.06509 209.983 6.83101 175.095C8.97967 162.121 8.80226 149.094 0.5 146.134Z" fill="#8ED16F"/>
<g opacity="0.3">
<path opacity="0.3" d="M0.5 146.134C0.5 146.134 26.9641 141.919 29.3756 165.637C31.7871 189.354 80.2635 192.643 80.2635 192.643C80.2635 192.643 79.9349 192.859 79.3534 193.247C39.3271 219.531 1.06509 209.983 6.83101 175.095C8.97967 162.121 8.80226 149.094 0.5 146.134Z" fill="white"/>
</g>
<path d="M35.1086 145.842C39.1277 145.842 42.3858 137.341 42.3858 126.855C42.3858 116.369 39.1277 107.869 35.1086 107.869C31.0895 107.869 27.8314 116.369 27.8314 126.855C27.8314 137.341 31.0895 145.842 35.1086 145.842Z" fill="#8ED16F"/>
<path opacity="0.3" d="M35.1086 145.842C39.1277 145.842 42.3858 137.341 42.3858 126.855C42.3858 116.369 39.1277 107.869 35.1086 107.869C31.0895 107.869 27.8314 116.369 27.8314 126.855C27.8314 137.341 31.0895 145.842 35.1086 145.842Z" fill="black"/>
<path d="M34.4437 195.81C36.3593 193.895 34.4559 188.886 30.1924 184.622C25.9288 180.359 20.9197 178.455 19.0041 180.371C17.0885 182.286 18.9919 187.295 23.2554 191.559C27.519 195.823 32.5281 197.726 34.4437 195.81Z" fill="#8ED16F"/>
<path opacity="0.3" d="M34.4437 195.81C36.3593 193.895 34.4559 188.886 30.1924 184.622C25.9288 180.359 20.9197 178.455 19.0041 180.371C17.0885 182.286 18.9919 187.295 23.2554 191.559C27.519 195.823 32.5281 197.726 34.4437 195.81Z" fill="black"/>
<path d="M238.328 88.14H66.0605C63.9789 88.14 61.9825 88.9669 60.5106 90.4389C59.0386 91.9108 58.2117 93.9072 58.2117 95.9889V196.96C58.2117 199.041 59.0386 201.038 60.5106 202.51C61.9825 203.982 63.9789 204.809 66.0605 204.809H238.328C240.41 204.809 242.406 203.982 243.878 202.51C245.35 201.038 246.177 199.041 246.177 196.96V95.9889C246.177 93.9072 245.35 91.9108 243.878 90.4389C242.406 88.9669 240.41 88.14 238.328 88.14Z" fill="url(#paint0_linear)"/>
<path d="M235.812 89.5133H68.5739C64.0721 89.5133 60.4227 93.1627 60.4227 97.6644V195.284C60.4227 199.786 64.0721 203.435 68.5739 203.435H235.812C240.313 203.435 243.963 199.786 243.963 195.284V97.6644C243.963 93.1627 240.313 89.5133 235.812 89.5133Z" fill="#6D61F2"/>
<path d="M243.963 109.449H60.4227V130.335H243.963V109.449Z" fill="#6D61F2"/>
<path opacity="0.3" d="M243.963 109.449H60.4227V130.335H243.963V109.449Z" fill="black"/>
<path d="M226.56 145.842H77.829V155.968H226.56V145.842Z" fill="#D6D6E3"/>
<path d="M90.169 195.843C98.209 195.843 104.727 189.325 104.727 181.285C104.727 173.245 98.209 166.727 90.169 166.727C82.129 166.727 75.6113 173.245 75.6113 181.285C75.6113 189.325 82.129 195.843 90.169 195.843Z" fill="#6D61F2"/>
<path opacity="0.3" d="M90.169 195.843C98.209 195.843 104.727 189.325 104.727 181.285C104.727 173.245 98.209 166.727 90.169 166.727C82.129 166.727 75.6113 173.245 75.6113 181.285C75.6113 189.325 82.129 195.843 90.169 195.843Z" fill="black"/>
<path d="M233.528 61.423C233.763 62.166 234.262 62.7971 234.931 63.1971C237.951 65.1913 244.515 64.7675 245.303 64.7675C245.471 64.7675 245.691 65.0665 245.934 65.5691C247.094 67.9609 248.891 74.972 249.013 76.549C249.174 78.4579 250.948 87.3909 253.852 90.719C253.941 90.8209 254.029 90.9162 254.115 91.0049C256.963 93.8665 260.305 90.719 260.305 90.719L260.784 89.0533C260.65 89.7104 260.498 90.4759 260.347 91.3334C260.272 91.7638 260.196 92.2205 260.124 92.6903C259.691 95.3376 259.464 98.0145 259.444 100.697C259.436 101.671 259.478 102.645 259.569 103.614C259.595 103.884 259.624 104.15 259.661 104.409C259.809 105.591 259.881 106.78 259.877 107.971C259.851 115.041 258.047 123.836 258.047 123.836L258.116 123.813C258.074 124.033 258.047 124.142 258.047 124.142L258.153 124.109C258.102 124.435 258.054 124.769 258.008 125.111C257.397 129.546 257.045 135.066 256.878 138.253C256.791 139.934 256.866 141.619 257.101 143.286L260.308 165.86V176.373C260.297 177.966 260.491 179.554 260.886 181.098C261.931 185.07 261.07 198.934 260.587 205.512C260.452 207.305 260.347 208.561 260.318 208.922V209.03L260.41 208.994C260.41 209.07 260.41 209.109 260.41 209.109C260.547 209.051 260.69 209.009 260.837 208.984C259.565 210.956 257.262 214.215 255.491 214.763C254.448 215.081 253.52 215.697 252.82 216.534L252.774 216.597L252.709 216.689C252.49 216.982 252.357 217.33 252.324 217.694C252.299 217.631 252.279 217.566 252.265 217.5C252.13 218.233 252.571 218.903 253.954 219.228C254.76 219.382 255.581 219.448 256.401 219.425C261.198 219.425 269.711 217.95 270.65 216.363V210.89L270.805 210.939V210.988L271.393 211.182L273.006 205.768C274.941 204.335 273.335 178.699 273.006 172.809C272.71 167.44 276.032 146.085 276.62 142.323L276.541 142.228L276.63 141.679C276.748 141.765 276.858 141.862 276.958 141.968C277.151 142.198 277.32 142.446 277.461 142.711C277.739 143.181 277.977 143.673 278.174 144.183C281.42 152.278 282.882 175.427 282.882 177.503V199.273C282.875 201.421 283.174 203.559 283.769 205.623C284.067 206.71 284.298 207.814 284.459 208.928C284.528 209.365 284.587 209.799 284.643 210.213C284.699 210.627 284.755 211.1 284.797 211.488C284.797 211.59 284.82 211.688 284.83 211.78C284.84 211.872 284.83 211.869 284.83 211.915C284.919 212.772 284.965 213.334 284.965 213.334C284.977 213.287 285 213.243 285.031 213.206L285.047 213.413C285.07 213.335 285.115 213.264 285.175 213.209C285.309 213.078 285.454 212.96 285.609 212.855V215.621L285.53 215.562V216.038C288.875 218.561 294.319 219.324 298.498 219.294C301.208 219.294 303.403 218.965 304.165 218.584C305.256 218.049 304.658 216.8 303.666 215.844C302.897 215.102 301.895 214.53 301.261 214.602C300.203 214.717 296.585 210.62 294.69 208.377L294.903 208.281L295.206 208.15V171.853C295.206 171.853 295.692 157.521 297.141 143.348C297.828 136.204 296.983 128.995 294.66 122.203L294.614 122.069L295.054 122.138C295.521 122.21 295.771 122.253 295.771 122.253C295.771 122.253 295.771 122.141 295.741 121.924H295.771C295.771 121.924 295.206 115.777 295.199 108.056C295.199 99.3038 295.938 88.6328 298.997 82.5942C300.758 79.1182 301.346 76.3519 301.297 74.1704C301.374 72.2508 300.821 70.3587 299.723 68.7823C299.263 68.1477 298.636 67.6521 297.913 67.3499L297.85 67.3137H297.818C297.289 67.0999 296.725 66.9884 296.155 66.9852H289.548C288.783 66.9858 288.032 66.7877 287.367 66.4102L284.781 64.9449C283.92 63.0624 283.795 60.7297 283.979 58.5416C283.979 58.3675 284.012 58.1934 284.029 58.0225L284.216 57.8254C284.36 57.671 284.495 57.4969 284.627 57.349C284.624 57.4787 284.614 57.6081 284.597 57.7367C284.564 57.9437 284.508 58.0652 284.42 58.0915C285.832 57.9075 287.409 57.6283 288.277 56.5375C288.313 56.4948 288.346 56.4488 288.378 56.4028C288.635 55.9879 288.847 55.5475 289.013 55.0887C289.134 54.7752 289.296 54.4791 289.496 54.2082C289.712 53.9256 289.995 53.6956 290.228 53.4262L290.268 53.3802C291.099 52.3946 291.145 50.9819 291.155 49.694C291.171 46.5663 291.079 43.1232 288.986 40.7774C287.248 38.8258 284.475 38.0866 281.844 38.0012C279.212 37.9158 276.587 38.3889 273.959 38.402C272.172 38.402 270.016 38.3724 269.031 39.8509C268.548 40.577 268.489 41.5264 267.963 42.223C267.661 42.6238 267.197 42.9687 267.171 43.4681C267.168 43.6985 267.227 43.9256 267.342 44.1252V44.1482C267.979 45.4032 269.333 46.1852 270.746 46.4316C270.507 46.719 270.287 47.0219 270.089 47.3383C269.226 48.7172 268.77 50.3116 268.774 51.9379C268.774 52.1285 268.774 52.3158 268.794 52.503C268.941 54.712 269.926 56.7816 271.547 58.2887C271.521 58.4726 271.495 58.6566 271.465 58.8373L271.524 58.8899C271.71 59.0585 271.904 59.2184 272.106 59.3696L272.178 59.4254C272.178 59.5404 272.178 59.6554 272.178 59.754C272.178 59.9445 272.178 60.1384 272.158 60.3256C272.139 60.5129 272.158 60.6279 272.139 60.779L272.096 60.7429L268.886 58.062L263.725 53.285C263.725 53.285 250.82 43.8919 250.172 48.3568C250.094 49.1498 250.313 49.9436 250.787 50.5843C253.155 54.1983 261.3 57.2735 261.3 57.2735C261.3 57.2735 266.156 62.4086 269.405 67.9445C269.29 68.0069 269.175 68.0661 269.054 68.1219C266.162 69.4657 261.944 68.8973 261.944 68.8973C257.072 69.6562 256.631 74.995 256.658 77.1535C256.658 77.2554 256.658 77.354 256.658 77.4427C256.658 77.5314 256.658 77.5511 256.658 77.6004L250.192 62.4184L250.172 62.3724C249.961 61.8782 249.629 61.4451 249.207 61.1131C248.784 60.7812 248.284 60.5612 247.754 60.4735C243.431 59.7474 232.625 58.2328 233.528 61.423ZM260.597 208.938C260.691 208.916 260.787 208.898 260.883 208.886L260.853 208.932L260.597 208.938Z" fill="url(#paint1_linear)"/>
<path d="M292.902 205.834C292.902 205.834 299.026 213.531 300.442 213.374C301.858 213.216 305.154 216.357 303.271 217.316C301.389 218.276 290.55 218.887 285.201 214.803V208.649L292.902 205.834Z" fill="#ACA9C9"/>
<path d="M261.957 206.303C261.957 206.303 258.343 212.743 255.833 213.531C253.323 214.32 251.122 217.145 254.42 217.931C257.719 218.716 269.5 216.988 270.598 215.102V206.773L261.957 206.303Z" fill="#ACA9C9"/>
<path d="M257.42 143.043L260.541 165.311V175.664C260.532 177.234 260.721 178.8 261.106 180.322C262.125 184.242 261.287 197.916 260.814 204.404C260.659 206.52 260.541 207.874 260.541 207.874C262.581 206.931 271.222 209.914 271.222 209.914L272.096 206.941L272.792 204.575C274.678 203.163 273.121 177.875 272.792 172.05C272.579 168.071 274.353 155.172 275.49 147.442C275.818 145.257 276.084 143.499 276.245 142.441C276.347 141.784 276.403 141.42 276.403 141.42C276.749 141.702 277.037 142.049 277.251 142.441C277.521 142.906 277.753 143.391 277.944 143.894C281.105 151.88 282.544 174.714 282.544 176.748V198.221C282.537 200.34 282.828 202.449 283.408 204.487C283.797 205.973 284.081 207.485 284.259 209.011C284.482 210.716 284.587 212.089 284.587 212.089C284.745 211.146 294.483 206.905 294.483 206.905V171.094C294.483 171.094 294.953 156.966 296.369 142.977C296.977 136.614 296.364 130.193 294.562 124.06C294.171 122.722 293.78 121.589 293.441 120.692C292.866 119.164 292.456 118.32 292.456 118.32H260.377C259.838 118.422 259.391 119.506 258.987 121.152C258.724 122.256 258.494 123.609 258.294 125.094C257.699 129.467 257.358 134.911 257.193 138.059C257.11 139.723 257.186 141.392 257.42 143.043Z" fill="#618FD8"/>
<g opacity="0.1">
<path opacity="0.1" d="M293.918 207.007V171.195C293.918 171.195 294.388 157.068 295.804 143.079C297.22 129.089 291.861 118.418 291.861 118.418H292.489C292.489 118.418 297.827 129.099 296.431 143.079C295.035 157.058 294.545 171.195 294.545 171.195V207.007C294.545 207.007 284.807 211.248 284.65 212.191C284.65 212.191 284.65 211.981 284.6 211.619C286.723 210.144 293.918 207.007 293.918 207.007Z" fill="black"/>
<path opacity="0.1" d="M261.484 207.775C261.188 207.781 260.895 207.842 260.62 207.953V207.795C260.907 207.766 261.196 207.76 261.484 207.775Z" fill="black"/>
<path opacity="0.1" d="M272.244 204.654C274.13 203.241 272.572 177.954 272.244 172.129C271.915 166.303 275.858 141.502 275.858 141.502C276.064 141.661 276.247 141.849 276.4 142.06C275.822 145.766 272.589 166.836 272.874 172.129C273.203 177.94 274.76 203.228 272.874 204.654L271.304 209.993L270.732 209.802L272.244 204.654Z" fill="black"/>
</g>
<path d="M263.84 79.5486L260.554 91.1724C260.554 91.1724 257.098 94.4579 254.272 91.1724C251.447 87.887 249.706 79.0788 249.535 77.193C249.364 75.3072 246.864 65.5692 245.921 65.5692C244.978 65.5692 235.555 66.1967 234.455 62.2837C233.574 59.1363 244.094 60.641 248.306 61.3474C248.825 61.4357 249.313 61.6537 249.725 61.9811C250.136 62.3085 250.459 62.7347 250.662 63.2201L257.121 78.6451C257.121 78.6451 260.541 74.6796 263.84 79.5486Z" fill="#F7C4A7"/>
<path d="M285.044 52.5326C285.044 52.5326 280.96 63.9987 286.144 68.0825C291.329 72.1663 267.605 73.2669 267.605 73.2669L270.824 70.2049C270.824 70.2049 273.101 61.1732 271.531 53.6332L285.044 52.5326Z" fill="#F7C4A7"/>
<path opacity="0.1" d="M280.017 68.0825C280.017 68.0825 284.18 67.0607 284.18 65.9634L287.869 68.0825H297.137C297.137 68.0825 303.892 71.8509 298.238 83.1626C292.584 94.4743 295.097 122.259 295.097 122.259C295.097 122.259 274.994 118.645 258.343 124.145C258.343 124.145 260.856 111.736 259.914 104.669C258.971 97.602 261.484 87.7063 261.484 87.7063L262.897 81.7367C262.897 81.7367 262.818 76.1515 257.006 78.9868C257.006 78.9868 256.142 70.8981 262.112 69.9552C262.112 69.9552 269.011 70.8981 271.064 67.4418C271.064 67.455 275.621 70.126 280.017 68.0825Z" fill="black"/>
<path d="M280.017 67.7704C280.017 67.7704 284.18 66.7486 284.18 65.6513L286.884 67.2053C287.53 67.5754 288.261 67.7702 289.006 67.7704H295.488C296.166 67.7684 296.834 67.9277 297.438 68.235C298.042 68.5424 298.564 68.989 298.961 69.5379C300.449 71.6307 301.783 75.7572 298.238 82.8505C292.584 94.1589 295.097 121.947 295.097 121.947C295.097 121.947 274.994 118.333 258.343 123.833C258.343 123.833 260.856 111.424 259.914 104.357C258.971 97.2899 261.484 87.4172 261.484 87.4172L262.897 81.4476C262.897 81.4476 262.818 75.8624 257.006 78.6977C257.006 78.6977 256.165 70.8324 261.865 69.7088C262.024 69.6735 262.186 69.6625 262.348 69.6759C263.567 69.804 269.247 70.2147 271.068 67.1363C271.064 67.1396 275.621 69.8106 280.017 67.7704Z" fill="#E14B5A"/>
<path opacity="0.1" d="M295.882 82.062C295.882 82.062 290.856 85.2028 282.688 82.062C282.688 82.062 273.735 78.7765 270.907 72.324C268.078 65.8714 285.198 73.4246 285.198 73.4246C285.198 73.4246 288.812 73.4246 289.909 72.6394C291.007 71.8541 298.708 78.6057 295.882 82.062Z" fill="black"/>
<path d="M295.882 81.4344C295.882 81.4344 290.856 84.5753 282.688 81.4344C282.688 81.4344 273.735 78.149 270.907 71.6965C268.078 65.2439 261.484 58.1769 261.484 58.1769C261.484 58.1769 250.018 53.7778 250.642 49.3819C251.266 44.986 263.836 54.2509 263.836 54.2509L268.863 58.9622L285.198 72.7839C285.198 72.7839 288.812 72.7839 289.909 71.9987C291.007 71.2135 298.708 77.9782 295.882 81.4344Z" fill="#F7C4A7"/>
<path opacity="0.1" d="M271.38 54.103L284.886 53.0024C284.192 55.0789 283.719 57.2231 283.477 59.3991C281.906 61.0273 279.76 61.9739 277.499 62.0354C275.237 62.0968 273.043 61.2681 271.386 59.7277C271.73 57.8684 271.728 55.9615 271.38 54.103Z" fill="black"/>
<path d="M277.428 61.5642C282.198 61.5642 286.066 57.6972 286.066 52.9269C286.066 48.1566 282.198 44.2895 277.428 44.2895C272.658 44.2895 268.791 48.1566 268.791 52.9269C268.791 57.6972 272.658 61.5642 277.428 61.5642Z" fill="#F7C4A7"/>
<path opacity="0.1" d="M282.169 54.8028C281.663 53.9683 282.691 52.8809 282.353 51.9675C282.041 51.1264 280.799 50.9819 280.382 50.1967C280.053 49.5626 280.382 48.7839 280.25 48.0841C280.063 47.1807 279.091 46.6188 278.167 46.5728C277.244 46.5268 276.354 46.8718 275.477 47.1675C274.047 47.6505 272.543 48.0217 271.045 47.8509C269.546 47.68 268.052 46.8653 267.385 45.5281C267.276 45.3333 267.218 45.114 267.217 44.8907C267.243 44.3979 267.697 44.0595 267.989 43.6653C268.502 42.9786 268.561 42.0423 269.027 41.326C269.98 39.8673 272.073 39.9034 273.814 39.8969C276.377 39.8969 278.926 39.4172 281.489 39.5026C284.052 39.588 286.746 40.3141 288.444 42.2394C290.481 44.5556 290.573 47.9462 290.557 51.0344C290.557 52.3059 290.504 53.6891 289.693 54.6714C289.456 54.9572 289.167 55.1938 288.94 55.4862C288.447 56.1433 288.316 56.9843 287.853 57.6513C287.031 58.8373 285.428 59.1264 283.999 59.317C284.42 59.2611 284.071 56.4455 283.999 56.186C283.723 54.8915 283.424 54.9178 282.169 54.8028Z" fill="black"/>
<path d="M282.169 54.4907C281.663 53.6562 282.691 52.5687 282.353 51.6554C282.041 50.8143 280.799 50.6698 280.382 49.8846C280.053 49.2505 280.382 48.4718 280.25 47.772C280.063 46.8685 279.091 46.3067 278.167 46.2607C277.244 46.2147 276.354 46.5597 275.477 46.8554C274.047 47.3384 272.543 47.7096 271.045 47.5388C269.546 47.3679 268.052 46.5531 267.385 45.216C267.276 45.0212 267.218 44.8018 267.217 44.5786C267.243 44.0858 267.697 43.7474 267.989 43.3531C268.502 42.6665 268.561 41.7301 269.027 41.0139C269.98 39.5552 272.073 39.5913 273.814 39.5848C276.377 39.5848 278.926 39.1051 281.489 39.1905C284.052 39.2759 286.746 40.002 288.444 41.9273C290.481 44.2435 290.573 47.634 290.557 50.7223C290.557 51.9938 290.504 53.377 289.693 54.3593C289.456 54.6451 289.167 54.8817 288.94 55.1741C288.447 55.8312 288.316 56.6722 287.853 57.3392C287.031 58.5252 285.428 58.8143 283.999 59.0049C284.42 58.949 284.071 56.1334 283.999 55.8739C283.723 54.563 283.424 54.6024 282.169 54.4907Z" fill="#281C1C"/>
<path opacity="0.1" d="M295.803 82.4562C295.803 82.4562 291.562 71.4599 288.263 71.1478C284.965 70.8357 294.545 71.1478 294.545 71.1478L297.686 76.802L295.803 82.4562Z" fill="black"/>
<path d="M296.119 82.4562C296.119 82.4562 291.877 71.4599 288.579 71.1478C285.28 70.8357 294.861 71.1478 294.861 71.1478L298.001 76.802L296.119 82.4562Z" fill="#E14B5A"/>
<path d="M284.245 209.037C284.469 210.742 284.574 212.115 284.574 212.115C284.732 211.172 294.47 206.931 294.47 206.931V204.378C294.221 204.369 293.973 204.381 293.727 204.414C291.838 204.667 290.087 205.584 288.47 206.563C287.105 207.459 285.695 208.285 284.245 209.037Z" fill="#618FD8"/>
<path opacity="0.3" d="M284.245 209.037C284.469 210.742 284.574 212.115 284.574 212.115C284.732 211.172 294.47 206.931 294.47 206.931V204.378C294.221 204.369 293.973 204.381 293.727 204.414C291.838 204.667 290.087 205.584 288.47 206.563C287.105 207.459 285.695 208.285 284.245 209.037Z" fill="black"/>
<path d="M260.541 207.874C262.581 206.931 271.222 209.914 271.222 209.914L272.096 206.941C270.588 206.635 269.09 206.254 267.618 205.801C266.931 205.602 266.259 205.354 265.607 205.058C265.172 204.826 264.725 204.617 264.267 204.434C263.14 204.046 261.967 204.211 260.81 204.405C260.659 206.52 260.541 207.874 260.541 207.874Z" fill="#618FD8"/>
<path opacity="0.3" d="M260.541 207.874C262.581 206.931 271.222 209.914 271.222 209.914L272.096 206.941C270.588 206.635 269.09 206.254 267.618 205.801C266.931 205.602 266.259 205.354 265.607 205.058C265.172 204.826 264.725 204.617 264.267 204.434C263.14 204.046 261.967 204.211 260.81 204.405C260.659 206.52 260.541 207.874 260.541 207.874Z" fill="black"/>
<path opacity="0.4" d="M303.186 216.827C303.317 216.77 303.434 216.685 303.527 216.577C303.621 216.469 303.688 216.341 303.725 216.202C303.783 216.419 303.761 216.65 303.662 216.851C303.562 217.052 303.393 217.211 303.186 217.296C301.3 218.239 290.465 218.867 285.116 214.783V214.313C290.465 218.397 301.3 217.77 303.186 216.827Z" fill="white"/>
<path opacity="0.4" d="M254.338 217.454C257.624 218.239 269.418 216.511 270.516 214.625V215.095C269.415 216.981 257.637 218.709 254.338 217.924C252.991 217.595 252.561 216.938 252.695 216.219C252.801 216.751 253.293 217.191 254.338 217.454Z" fill="white"/>
<path opacity="0.1" d="M273.499 103.033C273.499 103.033 270.043 101.932 269.1 103.033C268.157 104.133 260.098 106.712 260.098 106.712" fill="black"/>
<path d="M234.392 59.8755H251.197V59.5207H234.392V59.8755Z" fill="#8ED16F"/>
<path d="M234.392 60.2303H251.197V59.8755H234.392V60.2303Z" fill="#8ED16F"/>
<path opacity="0.1" d="M234.392 60.2303H251.197V59.8755H234.392V60.2303Z" fill="black"/>
<path d="M234.392 60.5852H251.197V60.2303H234.392V60.5852Z" fill="#8ED16F"/>
<path d="M234.392 60.9367H251.197V60.5819H234.392V60.9367Z" fill="#8ED16F"/>
<path opacity="0.1" d="M234.392 60.9367H251.197V60.5819H234.392V60.9367Z" fill="black"/>
<path d="M234.392 61.2915H251.197V60.9367H234.392V61.2915Z" fill="#8ED16F"/>
<path d="M234.392 61.6431H251.197V61.2883H234.392V61.6431Z" fill="#8ED16F"/>
<path opacity="0.1" d="M234.392 61.6431H251.197V61.2883H234.392V61.6431Z" fill="black"/>
<path d="M234.392 61.9979H251.197V61.6431H234.392V61.9979Z" fill="#8ED16F"/>
<path d="M234.392 62.3494H251.197V61.9946H234.392V62.3494Z" fill="#8ED16F"/>
<path opacity="0.1" d="M234.392 62.3494H251.197V61.9946H234.392V62.3494Z" fill="black"/>
<path d="M234.392 57.0501H251.197V56.6952H234.392V57.0501Z" fill="#8ED16F"/>
<path d="M246.279 48.6494L259.199 59.3951L259.426 59.1223L246.506 48.3766L246.279 48.6494Z" fill="#8ED16F"/>
<path d="M234.499 42.9959L247.42 53.7416L247.647 53.4688L234.726 42.723L234.499 42.9959Z" fill="#8ED16F"/>
<path d="M234.392 57.4016H251.197V57.0468H234.392V57.4016Z" fill="#8ED16F"/>
<path opacity="0.1" d="M234.392 57.4016H251.197V57.0468H234.392V57.4016Z" fill="black"/>
<path d="M234.392 57.7597H251.197V57.4049H234.392V57.7597Z" fill="#8ED16F"/>
<path d="M234.392 58.1113H251.197V57.7564H234.392V58.1113Z" fill="#8ED16F"/>
<path opacity="0.1" d="M234.392 58.1113H251.197V57.7564H234.392V58.1113Z" fill="black"/>
<path d="M234.392 58.4628H251.197V58.108H234.392V58.4628Z" fill="#8ED16F"/>
<path d="M234.392 58.8176H251.197V58.4628H234.392V58.8176Z" fill="#8ED16F"/>
<path opacity="0.1" d="M234.392 58.8176H251.197V58.4628H234.392V58.8176Z" fill="black"/>
<path d="M234.392 59.1692H251.197V58.8143H234.392V59.1692Z" fill="#8ED16F"/>
<path d="M234.392 59.524H251.197V59.1692H234.392V59.524Z" fill="#8ED16F"/>
<path opacity="0.1" d="M234.392 59.524H251.197V59.1692H234.392V59.524Z" fill="black"/>
<path d="M232.262 73.3007L238.283 74.4188L240.463 62.6835L234.442 61.5654L232.262 73.3007Z" fill="#8ED16F"/>
<path d="M237.68 68.2586C237.934 66.8938 237.587 65.6849 236.905 65.5583C236.224 65.4318 235.466 66.4356 235.212 67.8003C234.959 69.1651 235.306 70.374 235.987 70.5005C236.669 70.6271 237.427 69.6234 237.68 68.2586Z" fill="#8ED16F"/>
<path opacity="0.1" d="M237.68 68.2586C237.934 66.8938 237.587 65.6849 236.905 65.5583C236.224 65.4318 235.466 66.4356 235.212 67.8003C234.959 69.1651 235.306 70.374 235.987 70.5005C236.669 70.6271 237.427 69.6234 237.68 68.2586Z" fill="black"/>
<path d="M233.293 98.0707L239.314 99.1888L241.493 87.4535L235.472 86.3354L233.293 98.0707Z" fill="#8ED16F"/>
<path d="M238.707 93.0259C238.961 91.6612 238.614 90.4522 237.932 90.3257C237.251 90.1991 236.493 91.2029 236.239 92.5676C235.986 93.9324 236.333 95.1413 237.014 95.2679C237.696 95.3945 238.454 94.3907 238.707 93.0259Z" fill="#8ED16F"/>
<path opacity="0.1" d="M238.707 93.0259C238.961 91.6612 238.614 90.4522 237.932 90.3257C237.251 90.1991 236.493 91.2029 236.239 92.5676C235.986 93.9324 236.333 95.1413 237.014 95.2679C237.696 95.3945 238.454 94.3907 238.707 93.0259Z" fill="black"/>
<path d="M211.515 37.1866L208.6 42.5726L219.098 48.2533L222.012 42.8673L211.515 37.1866Z" fill="#8ED16F"/>
<path d="M218.54 44.1574C218.873 43.5475 218.152 42.5129 216.931 41.8466C215.709 41.1803 214.449 41.1346 214.117 41.7446C213.784 42.3546 214.505 43.3892 215.726 44.0554C216.948 44.7217 218.208 44.7674 218.54 44.1574Z" fill="#8ED16F"/>
<path opacity="0.1" d="M218.54 44.1574C218.873 43.5475 218.152 42.5129 216.931 41.8466C215.709 41.1803 214.449 41.1346 214.117 41.7446C213.784 42.3546 214.505 43.3892 215.726 44.0554C216.948 44.7217 218.208 44.7674 218.54 44.1574Z" fill="black"/>
<path d="M188.465 143.478L185.551 148.864L196.048 154.544L198.963 149.158L188.465 143.478Z" fill="#8ED16F"/>
<path d="M194.433 150.279C194.763 149.67 194.041 148.64 192.82 147.979C191.599 147.319 190.342 147.277 190.012 147.887C189.682 148.496 190.405 149.526 191.625 150.187C192.846 150.847 194.103 150.889 194.433 150.279Z" fill="#8ED16F"/>
<path opacity="0.1" d="M194.433 150.279C194.763 149.67 194.041 148.64 192.82 147.979C191.599 147.319 190.342 147.277 190.012 147.887C189.682 148.496 190.405 149.526 191.625 150.187C192.846 150.847 194.103 150.889 194.433 150.279Z" fill="black"/>
<path d="M174.363 55.7627L171.448 61.1487L181.945 66.8294L184.86 61.4434L174.363 55.7627Z" fill="#8ED16F"/>
<path d="M180.328 62.5594C180.657 61.9498 179.935 60.9201 178.714 60.2594C177.494 59.5988 176.237 59.5574 175.907 60.167C175.577 60.7766 176.299 61.8064 177.52 62.467C178.741 63.1276 179.998 63.169 180.328 62.5594Z" fill="#8ED16F"/>
<path opacity="0.1" d="M180.328 62.5594C180.657 61.9498 179.935 60.9201 178.714 60.2594C177.494 59.5988 176.237 59.5574 175.907 60.167C175.577 60.7766 176.299 61.8064 177.52 62.467C178.741 63.1276 179.998 63.169 180.328 62.5594Z" fill="black"/>
<path d="M192.038 37.1852L189.123 42.5712L199.621 48.2519L202.535 42.8659L192.038 37.1852Z" fill="#8ED16F"/>
<path d="M198.003 43.9819C198.333 43.3723 197.611 42.3425 196.39 41.6819C195.169 41.0213 193.912 40.9799 193.582 41.5895C193.252 42.1991 193.974 43.2288 195.195 43.8894C196.416 44.5501 197.673 44.5915 198.003 43.9819Z" fill="#8ED16F"/>
<path opacity="0.1" d="M198.003 43.9819C198.333 43.3723 197.611 42.3425 196.39 41.6819C195.169 41.0213 193.912 40.9799 193.582 41.5895C193.252 42.1991 193.974 43.2288 195.195 43.8894C196.416 44.5501 197.673 44.5915 198.003 43.9819Z" fill="black"/>
<path d="M209.685 59.1055L203.597 59.7711L204.894 71.6363L210.982 70.9707L209.685 59.1055Z" fill="#8ED16F"/>
<path d="M207.482 67.8795C208.171 67.8042 208.608 66.6245 208.457 65.2446C208.306 63.8648 207.625 62.8073 206.936 62.8826C206.247 62.9579 205.811 64.1376 205.962 65.5175C206.112 66.8973 206.793 67.9548 207.482 67.8795Z" fill="#8ED16F"/>
<path opacity="0.1" d="M207.482 67.8795C208.171 67.8042 208.608 66.6245 208.457 65.2446C208.306 63.8648 207.625 62.8073 206.936 62.8826C206.247 62.9579 205.811 64.1376 205.962 65.5175C206.112 66.8973 206.793 67.9548 207.482 67.8795Z" fill="black"/>
<path d="M251.423 124.077L245.335 124.743L246.633 136.608L252.721 135.942L251.423 124.077Z" fill="#8ED16F"/>
<path d="M249.224 132.851C249.913 132.776 250.349 131.596 250.198 130.216C250.047 128.837 249.366 127.779 248.677 127.854C247.988 127.93 247.552 129.109 247.703 130.489C247.854 131.869 248.535 132.927 249.224 132.851Z" fill="#8ED16F"/>
<path opacity="0.1" d="M249.224 132.851C249.913 132.776 250.349 131.596 250.198 130.216C250.047 128.837 249.366 127.779 248.677 127.854C247.988 127.93 247.552 129.109 247.703 130.489C247.854 131.869 248.535 132.927 249.224 132.851Z" fill="black"/>
<path d="M185.847 84.3103L182.932 89.6963L193.43 95.377L196.344 89.991L185.847 84.3103Z" fill="#8ED16F"/>
<path d="M191.81 91.1114C192.14 90.5018 191.418 89.4721 190.197 88.8115C188.976 88.1508 187.719 88.1095 187.389 88.7191C187.059 89.3287 187.781 90.3584 189.002 91.019C190.223 91.6796 191.48 91.721 191.81 91.1114Z" fill="#8ED16F"/>
<path opacity="0.1" d="M191.81 91.1114C192.14 90.5018 191.418 89.4721 190.197 88.8115C188.976 88.1508 187.719 88.1095 187.389 88.7191C187.059 89.3287 187.781 90.3584 189.002 91.019C190.223 91.6796 191.48 91.721 191.81 91.1114Z" fill="black"/>
<path d="M159.357 76.7446L156.442 82.1306L166.94 87.8113L169.854 82.4253L159.357 76.7446Z" fill="#8ED16F"/>
<path d="M166.194 83.9034C166.527 83.2934 165.806 82.2588 164.585 81.5925C163.363 80.9263 162.103 80.8806 161.77 81.4906C161.438 82.1005 162.158 83.1351 163.38 83.8014C164.601 84.4677 165.861 84.5133 166.194 83.9034Z" fill="#8ED16F"/>
<path opacity="0.1" d="M166.194 83.9034C166.527 83.2934 165.806 82.2588 164.585 81.5925C163.363 80.9263 162.103 80.8806 161.77 81.4906C161.438 82.1005 162.158 83.1351 163.38 83.8014C164.601 84.4677 165.861 84.5133 166.194 83.9034Z" fill="black"/>
<path d="M150.873 204.123L147.958 209.509L158.456 215.189L161.37 209.803L150.873 204.123Z" fill="#8ED16F"/>
<path d="M156.838 210.921C157.167 210.311 156.445 209.282 155.224 208.621C154.004 207.96 152.747 207.919 152.417 208.528C152.087 209.138 152.809 210.168 154.03 210.828C155.251 211.489 156.508 211.53 156.838 210.921Z" fill="#8ED16F"/>
<path opacity="0.1" d="M156.838 210.921C157.167 210.311 156.445 209.282 155.224 208.621C154.004 207.96 152.747 207.919 152.417 208.528C152.087 209.138 152.809 210.168 154.03 210.828C155.251 211.489 156.508 211.53 156.838 210.921Z" fill="black"/>
<path d="M143.235 206.199L142.118 212.22L153.854 214.397L154.971 208.376L143.235 206.199Z" fill="#8ED16F"/>
<path opacity="0.05" d="M143.235 206.199L142.118 212.22L153.854 214.397L154.971 208.376L143.235 206.199Z" fill="black"/>
<path d="M151.004 210.833C151.13 210.151 150.126 209.393 148.762 209.14C147.397 208.887 146.188 209.234 146.062 209.916C145.935 210.597 146.939 211.355 148.304 211.608C149.669 211.861 150.878 211.514 151.004 210.833Z" fill="#8ED16F"/>
<path opacity="0.1" d="M151.004 210.833C151.13 210.151 150.126 209.393 148.762 209.14C147.397 208.887 146.188 209.234 146.062 209.916C145.935 210.597 146.939 211.355 148.304 211.608C149.669 211.861 150.878 211.514 151.004 210.833Z" fill="black"/>
<path d="M144.335 209.81L143.218 215.831L154.954 218.008L156.071 211.987L144.335 209.81Z" fill="#8ED16F"/>
<path d="M152.1 214.444C152.227 213.762 151.223 213.004 149.858 212.751C148.493 212.498 147.284 212.845 147.158 213.527C147.031 214.208 148.035 214.966 149.4 215.219C150.765 215.472 151.974 215.125 152.1 214.444Z" fill="#8ED16F"/>
<path opacity="0.1" d="M152.1 214.444C152.227 213.762 151.223 213.004 149.858 212.751C148.493 212.498 147.284 212.845 147.158 213.527C147.031 214.208 148.035 214.966 149.4 215.219C150.765 215.472 151.974 215.125 152.1 214.444Z" fill="black"/>
<path d="M163.255 219.603L160.341 224.989L170.838 230.67L173.753 225.284L163.255 219.603Z" fill="#8ED16F"/>
<path d="M169.223 226.401C169.553 225.792 168.831 224.762 167.61 224.101C166.389 223.441 165.132 223.399 164.802 224.009C164.473 224.618 165.195 225.648 166.416 226.309C167.636 226.969 168.893 227.011 169.223 226.401Z" fill="#8ED16F"/>
<path opacity="0.1" d="M169.223 226.401C169.553 225.792 168.831 224.762 167.61 224.101C166.389 223.441 165.132 223.399 164.802 224.009C164.473 224.618 165.195 225.648 166.416 226.309C167.636 226.969 168.893 227.011 169.223 226.401Z" fill="black"/>
<path d="M155.62 221.675L154.503 227.696L166.239 229.873L167.356 223.852L155.62 221.675Z" fill="#8ED16F"/>
<path opacity="0.05" d="M155.62 221.675L154.503 227.696L166.239 229.873L167.356 223.852L155.62 221.675Z" fill="black"/>
<path d="M163.386 226.309C163.512 225.627 162.508 224.87 161.143 224.616C159.778 224.363 158.57 224.71 158.443 225.392C158.317 226.073 159.321 226.831 160.685 227.084C162.05 227.338 163.259 226.99 163.386 226.309Z" fill="#8ED16F"/>
<path opacity="0.1" d="M163.386 226.309C163.512 225.627 162.508 224.87 161.143 224.616C159.778 224.363 158.57 224.71 158.443 225.392C158.317 226.073 159.321 226.831 160.685 227.084C162.05 227.338 163.259 226.99 163.386 226.309Z" fill="black"/>
<path d="M156.719 225.29L155.602 231.311L167.338 233.488L168.455 227.467L156.719 225.29Z" fill="#8ED16F"/>
<path d="M164.488 229.924C164.614 229.242 163.61 228.484 162.245 228.231C160.881 227.978 159.672 228.325 159.545 229.007C159.419 229.688 160.423 230.446 161.788 230.699C163.152 230.952 164.361 230.605 164.488 229.924Z" fill="#8ED16F"/>
<path opacity="0.1" d="M164.488 229.924C164.614 229.242 163.61 228.484 162.245 228.231C160.881 227.978 159.672 228.325 159.545 229.007C159.419 229.688 160.423 230.446 161.788 230.699C163.152 230.952 164.361 230.605 164.488 229.924Z" fill="black"/>
<path d="M181.834 209.627L178.919 215.013L189.417 220.693L192.331 215.307L181.834 209.627Z" fill="#8ED16F"/>
<path d="M187.796 216.423C188.125 215.814 187.403 214.784 186.182 214.123C184.962 213.463 183.705 213.421 183.375 214.031C183.045 214.641 183.767 215.67 184.988 216.331C186.209 216.992 187.466 217.033 187.796 216.423Z" fill="#8ED16F"/>
<path opacity="0.1" d="M187.796 216.423C188.125 215.814 187.403 214.784 186.182 214.123C184.962 213.463 183.705 213.421 183.375 214.031C183.045 214.641 183.767 215.67 184.988 216.331C186.209 216.992 187.466 217.033 187.796 216.423Z" fill="black"/>
<path d="M174.197 211.701L173.08 217.722L184.816 219.899L185.933 213.878L174.197 211.701Z" fill="#8ED16F"/>
<path opacity="0.05" d="M174.197 211.701L173.08 217.722L184.816 219.899L185.933 213.878L174.197 211.701Z" fill="black"/>
<path d="M181.962 216.334C182.089 215.653 181.085 214.895 179.72 214.642C178.355 214.389 177.146 214.736 177.02 215.418C176.893 216.099 177.897 216.857 179.262 217.11C180.627 217.363 181.836 217.016 181.962 216.334Z" fill="#8ED16F"/>
<path opacity="0.1" d="M181.962 216.334C182.089 215.653 181.085 214.895 179.72 214.642C178.355 214.389 177.146 214.736 177.02 215.418C176.893 216.099 177.897 216.857 179.262 217.11C180.627 217.363 181.836 217.016 181.962 216.334Z" fill="black"/>
<path d="M175.296 215.315L174.179 221.336L185.915 223.513L187.032 217.492L175.296 215.315Z" fill="#8ED16F"/>
<path d="M183.064 219.949C183.191 219.268 182.187 218.51 180.822 218.257C179.457 218.004 178.248 218.351 178.122 219.032C177.996 219.714 178.999 220.472 180.364 220.725C181.729 220.978 182.938 220.631 183.064 219.949Z" fill="#8ED16F"/>
<path opacity="0.1" d="M183.064 219.949C183.191 219.268 182.187 218.51 180.822 218.257C179.457 218.004 178.248 218.351 178.122 219.032C177.996 219.714 178.999 220.472 180.364 220.725C181.729 220.978 182.938 220.631 183.064 219.949Z" fill="black"/>
</g>
<defs>
<linearGradient id="paint0_linear" x1="152.194" y1="204.809" x2="152.194" y2="88.14" gradientUnits="userSpaceOnUse">
<stop stop-color="#808080" stop-opacity="0.25"/>
<stop offset="0.54" stop-color="#808080" stop-opacity="0.12"/>
<stop offset="1" stop-color="#808080" stop-opacity="0.1"/>
</linearGradient>
<linearGradient id="paint1_linear" x1="-211088" y1="137529" x2="-211088" y2="37341.8" gradientUnits="userSpaceOnUse">
<stop stop-color="#808080" stop-opacity="0.25"/>
<stop offset="0.54" stop-color="#808080" stop-opacity="0.12"/>
<stop offset="1" stop-color="#808080" stop-opacity="0.1"/>
</linearGradient>
<clipPath id="clip0">
<rect width="320" height="234.75" fill="white" transform="translate(0.5 0.925217)"/>
</clipPath>
</defs>
</svg>
