<svg width="22" height="22" viewBox="0 0 22 22" fill="none" xmlns="http://www.w3.org/2000/svg">
<path d="M17.3282 21.5C16.4132 21.5 15.1278 21.1691 13.2032 20.0937C10.8627 18.7812 9.05238 17.5695 6.72457 15.2478C4.48019 13.0048 3.388 11.5526 1.85941 8.77109C0.132536 5.63046 0.42691 3.98421 0.755973 3.28062C1.14785 2.43968 1.72629 1.93671 2.47394 1.43749C2.89861 1.15926 3.34801 0.920751 3.81644 0.724992C3.86332 0.704836 3.90691 0.685617 3.94582 0.668274C4.17785 0.563742 4.52941 0.405774 4.97472 0.574524C5.27191 0.686086 5.53722 0.914367 5.95254 1.32452C6.80425 2.16452 7.96816 4.0353 8.39754 4.95405C8.68582 5.57327 8.8766 5.98202 8.87707 6.44046C8.87707 6.97718 8.60707 7.39109 8.27941 7.8378C8.218 7.92171 8.15707 8.00187 8.098 8.07968C7.74129 8.54843 7.663 8.6839 7.71457 8.92577C7.8191 9.41187 8.59863 10.8589 9.87972 12.1372C11.1608 13.4155 12.5661 14.1458 13.0541 14.2498C13.3063 14.3037 13.4446 14.2222 13.9283 13.8528C13.9977 13.7998 14.0689 13.745 14.1435 13.6901C14.6432 13.3184 15.0378 13.0555 15.5619 13.0555H15.5647C16.0208 13.0555 16.4113 13.2533 17.0582 13.5795C17.9019 14.0051 19.8289 15.1541 20.6741 16.0067C21.0852 16.4211 21.3144 16.6855 21.4264 16.9822C21.5952 17.4289 21.4363 17.7791 21.3327 18.0134C21.3153 18.0523 21.2961 18.095 21.276 18.1423C21.0787 18.6099 20.8387 19.0584 20.5593 19.482C20.061 20.2273 19.5561 20.8044 18.7133 21.1967C18.2805 21.4014 17.8069 21.5051 17.3282 21.5Z" fill="#6D61F2"/>
</svg>
