<svg width="104" height="48" viewBox="0 0 104 48" fill="none" xmlns="http://www.w3.org/2000/svg">
<rect opacity="0.05" width="104" height="48" rx="18" fill="#6D61F2"/>
<path d="M54.192 28H55.56V19.66H54.192V23.236H50.268V19.66H48.9V28H50.268V24.352H54.192V28ZM63.6609 24.688C63.6609 22.612 62.1729 21.28 60.2889 21.28C58.4049 21.28 56.9169 22.612 56.9169 24.688C56.9169 26.764 58.3449 28.108 60.2289 28.108C62.1249 28.108 63.6609 26.764 63.6609 24.688ZM58.3089 24.688C58.3089 23.188 59.2329 22.468 60.2649 22.468C61.2849 22.468 62.2569 23.188 62.2569 24.688C62.2569 26.188 61.2489 26.92 60.2289 26.92C59.1969 26.92 58.3089 26.188 58.3089 24.688ZM74.3853 28H75.7413V24.1C75.7413 22.252 74.5653 21.28 73.0173 21.28C72.0573 21.28 71.1213 21.784 70.7133 22.588C70.2573 21.724 69.3813 21.28 68.3373 21.28C67.5453 21.28 66.8253 21.604 66.3813 22.144V21.388H65.0133V28H66.3813V24.304C66.3813 23.092 67.0413 22.468 68.0493 22.468C69.0453 22.468 69.7053 23.092 69.7053 24.304V28H71.0613V24.304C71.0613 23.092 71.7213 22.468 72.7293 22.468C73.7253 22.468 74.3853 23.092 74.3853 24.304V28ZM80.266 22.432C81.286 22.432 82.09 23.08 82.114 24.1H78.454C78.598 23.056 79.342 22.432 80.266 22.432ZM83.362 26.032H81.886C81.634 26.548 81.166 26.956 80.326 26.956C79.318 26.956 78.538 26.296 78.442 25.204H83.494C83.53 24.976 83.542 24.76 83.542 24.532C83.542 22.588 82.21 21.28 80.326 21.28C78.37 21.28 77.026 22.612 77.026 24.688C77.026 26.764 78.43 28.108 80.326 28.108C81.946 28.108 82.99 27.184 83.362 26.032Z" fill="#6D61F2"/>
<path d="M38 24C38 23.846 38 23.7022 37.9898 23.5482C37.9898 23.4866 37.9795 23.4353 37.9795 23.3737C37.9692 23.2813 37.9692 23.1992 37.959 23.1068C37.9487 23.0349 37.9487 22.9733 37.9384 22.9014C37.9282 22.7885 37.9076 22.6653 37.8974 22.5523C37.8974 22.5421 37.8974 22.5421 37.8974 22.5318C37.1068 27.039 33.2978 30.5092 28.6263 30.7864C28.4723 30.7967 28.3183 30.807 28.1643 30.807C28.1129 30.807 28.0513 30.807 28 30.807C27.9795 30.807 27.9692 30.807 27.9487 30.807C27.8563 30.807 27.7741 30.807 27.6817 30.7967C27.6509 30.7967 27.6201 30.7967 27.5893 30.7967C27.5688 30.7967 27.538 30.7967 27.5175 30.7967C27.4045 30.7864 27.2916 30.7762 27.1787 30.7659C22.5483 30.3655 18.8214 26.8131 18.1643 22.2546C18.1437 22.3881 18.1232 22.5215 18.1027 22.655C18.1027 22.6756 18.1027 22.6858 18.0924 22.7064C18.0719 22.8296 18.0616 22.9528 18.0513 23.076C18.0513 23.1273 18.0411 23.1786 18.0411 23.2402C18.0308 23.3326 18.0308 23.425 18.0205 23.5174C18 23.6817 18 23.8357 18 23.9897V24C18 28.4866 20.9569 32.2854 25.0226 33.5483C25.1766 33.5996 25.3409 33.6407 25.4949 33.6817C26.2957 33.8871 27.1273 34 27.9897 34C33.5236 34 38 29.5236 38 24Z" fill="#6D61F2"/>
<path d="M18.8008 22.1725C19.0985 24.2362 20.1047 26.1766 21.6344 27.614C22.117 28.0657 22.6509 28.4661 23.2155 28.8152C22.0656 27.6653 21.2956 26.1253 21.1827 24.462C20.9568 21.0637 23.2258 18.1581 26.3367 17.3778C26.7884 17.2649 27.2299 17.614 27.2299 18.0862V19.7084C27.2299 20.3347 26.8808 20.9097 26.3367 21.2279C25.3511 21.8234 24.694 22.9528 24.7761 24.2156C24.8891 25.8789 26.2854 27.2033 27.9486 27.2238C29.7556 27.2546 31.2238 25.7967 31.2238 24C31.2238 22.809 30.5769 21.7721 29.6221 21.2177C29.078 20.8994 28.7597 20.3039 28.7597 19.6776V18.0862C28.7597 17.614 29.2012 17.2649 29.6632 17.3778C32.6303 18.117 34.8275 20.807 34.8275 24C34.8275 25.8994 34.0472 27.6242 32.7843 28.8665C33.2977 28.5688 33.7802 28.2095 34.232 27.8193C35.8131 26.423 36.8809 24.5134 37.2402 22.4394L37.5071 20.9199C36.2135 16.9055 32.4455 14 27.9999 14C23.657 14 19.9609 16.7721 18.5851 20.6427L18.8008 22.1725Z" fill="#6D61F2"/>
</svg>
