<svg width="321" height="234" viewBox="0 0 321 234" fill="none" xmlns="http://www.w3.org/2000/svg">
<g clip-path="url(#clip0)">
<path d="M23.1147 188.823C31.9144 188.823 39.0479 186.286 39.0479 183.158C39.0479 180.029 31.9144 177.492 23.1147 177.492C14.315 177.492 7.1814 180.029 7.1814 183.158C7.1814 186.286 14.315 188.823 23.1147 188.823Z" fill="#F8F8FA"/>
<path d="M280.518 212.245C289.318 212.245 296.451 209.708 296.451 206.58C296.451 203.451 289.318 200.914 280.518 200.914C271.719 200.914 264.585 203.451 264.585 206.58C264.585 209.708 271.719 212.245 280.518 212.245Z" fill="#F8F8FA"/>
<path d="M189.182 7.48821C164.935 16.8534 138.652 17.2889 114.239 8.47253C79.6387 -4.01914 34.452 -7.21641 17.708 50.0265C-10.8692 147.825 47.5952 182.733 47.5952 182.733C47.5952 182.733 88.4127 191.882 111.013 208.414C143.117 231.896 182.433 239.746 219.469 228.734C243.153 221.691 263.452 210.138 269.255 191.234C285.486 138.364 275.182 106.586 304.556 92.6462C333.93 78.7063 317.586 27.0649 296.696 25.8929C275.805 24.7209 226.589 36.6992 211.364 12.8737C205.936 4.41487 197.633 4.22012 189.182 7.48821Z" fill="#F8F8FA"/>
<path d="M279.874 207.383C279.874 207.383 284.123 192.923 279.073 182.28C276.923 177.829 276.275 172.801 277.225 167.95C277.695 165.65 278.374 163.399 279.254 161.223" stroke="#535461" stroke-width="2" stroke-miterlimit="10"/>
<path d="M276.11 154.499C276.11 156.269 279.318 161.411 279.318 161.411C279.318 161.411 282.526 156.273 282.526 154.499C282.526 153.648 282.188 152.831 281.586 152.23C280.984 151.628 280.167 151.289 279.316 151.289C278.465 151.289 277.648 151.628 277.047 152.23C276.445 152.831 276.106 153.648 276.106 154.499H276.11Z" fill="#6D61F2"/>
<path d="M270.806 164.317C271.769 165.805 277.257 168.375 277.257 168.375C277.257 168.375 277.158 162.317 276.195 160.83C275.966 160.476 275.67 160.171 275.323 159.932C274.976 159.693 274.585 159.525 274.173 159.437C273.761 159.348 273.336 159.342 272.922 159.419C272.507 159.495 272.112 159.652 271.758 159.881C271.405 160.11 271.1 160.406 270.861 160.753C270.622 161.1 270.453 161.491 270.365 161.903C270.277 162.315 270.271 162.74 270.347 163.154C270.423 163.569 270.581 163.964 270.81 164.317H270.806Z" fill="#6D61F2"/>
<path d="M271.036 181.09C272.619 181.887 278.652 181.338 278.652 181.338C278.652 181.338 275.508 176.158 273.925 175.361C273.166 174.978 272.285 174.912 271.477 175.179C270.669 175.445 269.999 176.021 269.616 176.781C269.233 177.541 269.167 178.421 269.434 179.229C269.7 180.038 270.276 180.707 271.036 181.09Z" fill="#6D61F2"/>
<path d="M274.07 193.744C275.487 194.807 281.534 195.274 281.534 195.274C281.534 195.274 279.311 189.637 277.887 188.586C277.203 188.079 276.346 187.866 275.505 187.992C274.663 188.117 273.906 188.572 273.4 189.256C272.893 189.941 272.68 190.798 272.806 191.639C272.931 192.481 273.386 193.238 274.07 193.744Z" fill="#6D61F2"/>
<path d="M283.992 168.719C282.72 169.954 276.797 171.232 276.797 171.232C276.797 171.232 278.249 165.351 279.52 164.116C280.13 163.523 280.951 163.196 281.802 163.209C282.653 163.221 283.464 163.571 284.057 164.181C284.65 164.792 284.976 165.612 284.964 166.463C284.952 167.314 284.602 168.126 283.992 168.719Z" fill="#6D61F2"/>
<path d="M287.352 183.558C285.769 184.354 279.736 183.806 279.736 183.806C279.736 183.806 282.88 178.625 284.462 177.847C285.222 177.463 286.103 177.398 286.911 177.664C287.719 177.93 288.388 178.507 288.772 179.266C289.155 180.026 289.22 180.907 288.954 181.715C288.688 182.523 288.111 183.192 287.352 183.575V183.558Z" fill="#6D61F2"/>
<path d="M288.637 198.432C287.221 199.494 281.173 199.962 281.173 199.962C281.173 199.962 283.397 194.325 284.82 193.273C285.504 192.767 286.361 192.554 287.203 192.679C288.045 192.805 288.802 193.26 289.308 193.944C289.814 194.629 290.028 195.486 289.902 196.327C289.776 197.169 289.321 197.926 288.637 198.432Z" fill="#6D61F2"/>
<path d="M23.1217 183.2C23.1217 183.2 32.2178 152.353 21.4221 129.622C16.89 120.087 15.4029 109.387 17.4813 99.0407C18.4833 94.1338 19.9328 89.329 21.8116 84.6866" stroke="#535461" stroke-width="2" stroke-miterlimit="10"/>
<path d="M15.0948 70.3289C15.0948 74.1104 21.9426 85.0795 21.9426 85.0795C21.9426 85.0795 28.7868 74.1033 28.7868 70.3289C28.7868 68.5127 28.0654 66.771 26.7812 65.4868C25.497 64.2026 23.7552 63.4811 21.9391 63.4811C20.1229 63.4811 18.3812 64.2026 17.097 65.4868C15.8128 66.771 15.0913 68.5127 15.0913 70.3289H15.0948Z" fill="#6D61F2"/>
<path d="M3.77514 91.2794C5.8323 94.466 17.5415 99.94 17.5415 99.94C17.5415 99.94 17.329 87.0092 15.2719 83.8368C14.2655 82.3588 12.721 81.3332 10.9685 80.9789C9.21589 80.6246 7.39427 80.9699 5.89289 81.9409C4.39152 82.9119 3.32948 84.4317 2.93376 86.1753C2.53803 87.919 2.84 89.7483 3.77514 91.2723V91.2794Z" fill="#6D61F2"/>
<path d="M4.26722 127.083C7.64507 128.786 20.5227 127.611 20.5227 127.611C20.5227 127.611 13.7953 116.557 10.4352 114.864C9.63215 114.459 8.75723 114.216 7.86036 114.149C6.96349 114.083 6.06223 114.193 5.20805 114.474C4.35386 114.756 3.56347 115.203 2.88201 115.79C2.20054 116.377 1.64135 117.092 1.23636 117.895C0.831367 118.698 0.588506 119.573 0.52164 120.47C0.454775 121.367 0.565215 122.268 0.846657 123.122C1.41505 124.847 2.64546 126.276 4.26722 127.094V127.083Z" fill="#6D61F2"/>
<path d="M10.7292 154.088C13.7707 156.337 26.6625 157.353 26.6625 157.353C26.6625 157.353 21.9179 145.314 18.8729 143.077C17.4127 141.997 15.5832 141.541 13.7871 141.81C11.9909 142.079 10.3752 143.05 9.29524 144.511C8.21533 145.971 7.75972 147.8 8.02864 149.596C8.29757 151.393 9.269 153.008 10.7292 154.088Z" fill="#6D61F2"/>
<path d="M31.9204 100.659C29.2083 103.293 16.5679 106.023 16.5679 106.023C16.5679 106.023 19.6625 93.4675 22.3747 90.8332C23.6776 89.5655 25.4308 88.8673 27.2485 88.8922C29.0663 88.9171 30.7997 89.663 32.0674 90.966C33.3351 92.2689 34.0333 94.0221 34.0084 95.8399C33.9835 97.6576 33.2376 99.391 31.9346 100.659H31.9204Z" fill="#6D61F2"/>
<path d="M39.0904 132.352C35.7126 134.055 22.835 132.879 22.835 132.879C22.835 132.879 29.5623 121.825 32.9225 120.133C33.7255 119.728 34.6004 119.485 35.4973 119.418C36.3941 119.351 37.2954 119.462 38.1496 119.743C39.0038 120.024 39.7942 120.471 40.4756 121.058C41.1571 121.645 41.7163 122.361 42.1213 123.164C42.5263 123.967 42.7691 124.842 42.836 125.738C42.9029 126.635 42.7924 127.537 42.511 128.391C42.2295 129.245 41.7826 130.035 41.1957 130.717C40.6088 131.398 39.8934 131.957 39.0904 132.362V132.352Z" fill="#6D61F2"/>
<path d="M41.8344 164.098C38.7929 166.346 25.9011 167.362 25.9011 167.362C25.9011 167.362 30.6457 155.324 33.6907 153.086C35.151 152.006 36.9804 151.551 38.7765 151.82C40.5727 152.089 42.1885 153.06 43.2684 154.52C44.3483 155.981 44.8039 157.81 44.535 159.606C44.266 161.402 43.2946 163.018 41.8344 164.098Z" fill="#6D61F2"/>
<path d="M134.747 107.11L115.014 104.554C114.214 104.451 113.598 104.146 113.619 103.881C113.654 103.615 114.327 103.491 115.145 103.608L134.835 106.458C135.377 106.536 135.788 106.742 135.763 106.922C135.738 107.092 135.285 107.181 134.747 107.11Z" fill="#6D61F2"/>
<path d="M134.87 107.446L115.078 105.4C114.274 105.318 113.591 105.467 113.566 105.733C113.541 105.998 114.182 106.278 114.982 106.349L134.81 108.119C135.356 108.169 135.802 108.062 135.819 107.882C135.833 107.691 135.412 107.503 134.87 107.446Z" fill="#6D61F2"/>
<path d="M164.563 122.335L184.292 119.779C185.092 119.676 185.708 119.372 185.687 119.106C185.652 118.84 184.979 118.716 184.161 118.833L164.471 121.684C163.929 121.762 163.519 121.967 163.543 122.147C163.568 122.317 164.021 122.406 164.563 122.335Z" fill="#6D61F2"/>
<path d="M164.435 122.671L184.228 120.625C185.032 120.543 185.715 120.692 185.74 120.958C185.765 121.223 185.124 121.503 184.324 121.574L164.496 123.344C163.95 123.394 163.504 123.288 163.487 123.107C163.472 122.916 163.894 122.728 164.435 122.671Z" fill="#6D61F2"/>
<path d="M99.2968 143.526H94.485V212.521H99.2968V143.526Z" fill="#40414D"/>
<path d="M204.393 143.526H199.581V212.521H204.393V143.526Z" fill="#40414D"/>
<path d="M92.6473 137.911H203.826C205.892 137.911 207.873 138.731 209.334 140.192C210.795 141.653 211.616 143.634 211.616 145.7V146.734H84.8577V145.7C84.8577 143.634 85.6784 141.653 87.1392 140.192C88.6 138.731 90.5813 137.911 92.6473 137.911Z" fill="#DFE6F5"/>
<path opacity="0.1" d="M92.2933 137.911H203.472C205.538 137.911 207.519 138.731 208.98 140.192C210.441 141.653 211.262 143.634 211.262 145.7V146.734H84.5037V145.7C84.5037 143.634 85.3243 141.653 86.7852 140.192C88.246 138.731 90.2273 137.911 92.2933 137.911Z" fill="black"/>
<path d="M92.6473 136.303H203.826C205.892 136.303 207.873 137.124 209.334 138.585C210.795 140.046 211.616 142.027 211.616 144.093V145.127H84.8577V144.093C84.8577 142.027 85.6784 140.046 87.1392 138.585C88.6 137.124 90.5813 136.303 92.6473 136.303Z" fill="#DFE6F5"/>
<path d="M148.237 130.688C153.554 130.688 157.864 126.377 157.864 121.06C157.864 115.743 153.554 111.433 148.237 111.433C142.92 111.433 138.609 115.743 138.609 121.06C138.609 126.377 142.92 130.688 148.237 130.688Z" fill="#FFD77C" stroke="#FFAB50" stroke-miterlimit="10"/>
<path d="M148.237 128.691C152.451 128.691 155.867 125.275 155.867 121.06C155.867 116.846 152.451 113.43 148.237 113.43C144.023 113.43 140.606 116.846 140.606 121.06C140.606 125.275 144.023 128.691 148.237 128.691Z" fill="#FFD77C" stroke="#FFAB50" stroke-miterlimit="10"/>
<path d="M148.237 126.874C151.448 126.874 154.051 124.271 154.051 121.06C154.051 117.849 151.448 115.247 148.237 115.247C145.026 115.247 142.423 117.849 142.423 121.06C142.423 124.271 145.026 126.874 148.237 126.874Z" fill="#FFD77C" stroke="#FFAB50" stroke-miterlimit="10"/>
<path d="M148.237 124.329C150.042 124.329 151.505 122.865 151.505 121.06C151.505 119.256 150.042 117.792 148.237 117.792C146.432 117.792 144.969 119.256 144.969 121.06C144.969 122.865 146.432 124.329 148.237 124.329Z" fill="#FFD77C" stroke="#FFAB50" stroke-miterlimit="10"/>
<path d="M142.621 135.903C147.938 135.903 152.248 131.593 152.248 126.276C152.248 120.959 147.938 116.649 142.621 116.649C137.304 116.649 132.994 120.959 132.994 126.276C132.994 131.593 137.304 135.903 142.621 135.903Z" fill="#FFD77C" stroke="#FFAB50" stroke-miterlimit="10"/>
<path d="M142.621 133.906C146.835 133.906 150.251 130.49 150.251 126.276C150.251 122.062 146.835 118.646 142.621 118.646C138.407 118.646 134.991 122.062 134.991 126.276C134.991 130.49 138.407 133.906 142.621 133.906Z" fill="#FFD77C" stroke="#FFAB50" stroke-miterlimit="10"/>
<path d="M142.621 132.09C145.832 132.09 148.435 129.487 148.435 126.276C148.435 123.065 145.832 120.462 142.621 120.462C139.41 120.462 136.807 123.065 136.807 126.276C136.807 129.487 139.41 132.09 142.621 132.09Z" fill="#FFD77C" stroke="#FFAB50" stroke-miterlimit="10"/>
<path d="M142.621 129.544C144.426 129.544 145.889 128.081 145.889 126.276C145.889 124.471 144.426 123.008 142.621 123.008C140.816 123.008 139.353 124.471 139.353 126.276C139.353 128.081 140.816 129.544 142.621 129.544Z" fill="#FFD77C" stroke="#FFAB50" stroke-miterlimit="10"/>
<path d="M153.852 135.903C159.169 135.903 163.48 131.593 163.48 126.276C163.48 120.959 159.169 116.649 153.852 116.649C148.535 116.649 144.225 120.959 144.225 126.276C144.225 131.593 148.535 135.903 153.852 135.903Z" fill="#FFD77C" stroke="#FFAB50" stroke-miterlimit="10"/>
<path d="M153.852 133.906C158.066 133.906 161.482 130.49 161.482 126.276C161.482 122.062 158.066 118.646 153.852 118.646C149.638 118.646 146.222 122.062 146.222 126.276C146.222 130.49 149.638 133.906 153.852 133.906Z" fill="#FFD77C" stroke="#FFAB50" stroke-miterlimit="10"/>
<path d="M153.852 132.09C157.063 132.09 159.666 129.487 159.666 126.276C159.666 123.065 157.063 120.462 153.852 120.462C150.641 120.462 148.038 123.065 148.038 126.276C148.038 129.487 150.641 132.09 153.852 132.09Z" fill="#FFD77C" stroke="#FFAB50" stroke-miterlimit="10"/>
<path d="M153.852 129.544C155.657 129.544 157.12 128.081 157.12 126.276C157.12 124.471 155.657 123.008 153.852 123.008C152.047 123.008 150.584 124.471 150.584 126.276C150.584 128.081 152.047 129.544 153.852 129.544Z" fill="#FFD77C" stroke="#FFAB50" stroke-miterlimit="10"/>
<path d="M128.178 123.472H168.291V125.355C168.291 127.215 167.925 129.057 167.213 130.775C166.502 132.494 165.458 134.055 164.143 135.37C162.828 136.685 161.267 137.728 159.548 138.44C157.83 139.152 155.988 139.518 154.128 139.518H142.341C140.481 139.518 138.64 139.152 136.921 138.44C135.203 137.728 133.642 136.685 132.327 135.37C131.012 134.055 129.968 132.494 129.257 130.775C128.545 129.057 128.178 127.215 128.178 125.355V123.472Z" fill="#6D61F2"/>
<path opacity="0.1" d="M164.673 123.468C164.568 127.652 162.833 131.63 159.837 134.552C156.841 137.474 152.822 139.111 148.637 139.111H140.674C141.835 139.376 143.023 139.512 144.214 139.515H152.238C154.346 139.516 156.433 139.101 158.381 138.295C160.328 137.489 162.098 136.307 163.589 134.817C165.08 133.327 166.262 131.558 167.069 129.611C167.876 127.663 168.291 125.576 168.291 123.468H164.673Z" fill="black"/>
<path d="M201.988 200.886V196.074H97.6929V200.886H201.988Z" fill="#40414D"/>
<path d="M58.5891 179.27H54.3792V217.574H58.5891V179.27Z" fill="#40414D"/>
<path d="M91.84 179.27H87.6301V217.574H91.84V179.27Z" fill="#40414D"/>
<path d="M95.2109 172.957C95.2109 175.513 86.5432 177.588 75.8502 177.588C65.1572 177.588 56.9109 175.517 56.9109 172.957C56.9109 170.397 65.1572 168.326 75.8502 168.326C86.5432 168.326 95.2109 170.411 95.2109 172.957Z" fill="#F6C6CD"/>
<path d="M51.012 172.953H95.2073V176.813C95.2073 177.799 94.8156 178.744 94.1184 179.442C93.4212 180.139 92.4755 180.53 91.4895 180.53H57.3853C55.695 180.53 54.0739 179.859 52.8787 178.664C51.6834 177.469 51.012 175.847 51.012 174.157V172.953Z" fill="#40414D"/>
<path d="M43.5069 128.666L44.4187 128.46C45.0599 128.316 45.7323 128.431 46.2881 128.783C46.8438 129.134 47.2373 129.691 47.3821 130.332L58.4199 179.232L57.0384 179.543C55.8787 179.805 54.6626 179.595 53.6575 178.961C52.6524 178.326 51.9406 177.317 51.6789 176.158L41.628 131.631C41.5562 131.313 41.5479 130.984 41.6035 130.663C41.6591 130.341 41.7776 130.034 41.9521 129.759C42.1267 129.483 42.3538 129.245 42.6206 129.057C42.8874 128.87 43.1886 128.737 43.5069 128.666Z" fill="#40414D"/>
<path d="M238.589 218.253H242.799V179.95H238.589V218.253Z" fill="#40414D"/>
<path d="M205.338 218.253H209.548V179.95H205.338V218.253Z" fill="#40414D"/>
<path d="M201.974 173.637C201.974 176.193 210.642 178.268 221.335 178.268C232.028 178.268 240.274 176.197 240.274 173.637C240.274 171.077 232.024 168.995 221.335 168.995C210.645 168.995 201.974 171.08 201.974 173.637Z" fill="#F6C6CD"/>
<path d="M239.793 181.214H205.688C204.702 181.214 203.757 180.822 203.06 180.125C202.362 179.428 201.971 178.482 201.971 177.496V173.637H246.166V174.84C246.166 176.531 245.495 178.152 244.299 179.347C243.104 180.542 241.483 181.214 239.793 181.214Z" fill="#40414D"/>
<path d="M240.146 180.223L238.764 179.911L249.804 131.005C249.948 130.364 250.342 129.806 250.898 129.455C251.454 129.104 252.126 128.988 252.767 129.133L253.679 129.339C254.32 129.483 254.878 129.877 255.229 130.433C255.58 130.988 255.696 131.661 255.551 132.302L245.498 176.836C245.237 177.994 244.526 179.002 243.523 179.637C242.519 180.272 241.305 180.483 240.146 180.223Z" fill="#40414D"/>
<path d="M241.645 158.727L242.887 158.334C242.887 158.334 240.763 144.142 240.784 131.424C240.784 131.07 240.784 130.691 240.784 130.326C240.809 129.533 240.837 128.747 240.876 127.979C240.926 126.995 240.936 126.056 240.929 125.146C241.046 112.899 236.22 107.726 236.22 107.726C236.22 107.726 230.555 99.6461 227.159 98.0741C226.866 97.1535 226.529 95.9709 226.232 94.5971C226.342 94.5227 226.448 94.4483 226.55 94.3704C227.953 93.3302 229.295 92.2107 230.569 91.0174C232.311 89.3851 233.982 87.3952 233.89 85.1504C233.9 84.9318 233.893 84.7129 233.869 84.4954C233.547 81.7867 230.732 79.7473 229.595 77.1802C228.639 75.0239 228.926 72.6233 228.091 70.4352C227.255 68.247 224.337 66.2111 222.135 67.3618C221.324 67.7867 220.836 68.5373 220.159 69.1074C218.481 70.5237 215.776 70.6547 213.482 70.0103C211.187 69.3659 210.507 66.7386 207.3 66.7316C207.584 66.8271 207.857 66.9567 208.11 67.1175C207.842 67.0724 207.571 67.0487 207.3 67.0467C207.952 67.2531 208.531 67.6443 208.966 68.1728C209.4 68.7012 209.673 69.3444 209.75 70.0244C209.745 70.1099 209.735 70.195 209.721 70.2794C208.44 70.9698 206.754 70.5768 205.218 70.552C203.681 70.5272 201.932 71.3026 202.084 72.5596C202.058 72.7024 202.058 72.8487 202.084 72.9916C202.286 73.944 203.561 74.6628 203.716 75.5444C203.716 75.5692 203.716 75.5905 203.716 75.6152C200.873 77.0363 197.796 77.9334 194.634 78.2637C194.532 78.2637 194.578 78.3876 194.726 78.5682H194.634C194.057 78.6284 198.094 81.8186 198.554 82.0275C200.239 82.7923 202.254 83.3553 204.039 83.943L204.194 83.9926C203.593 85.3894 203.283 86.8943 203.284 88.415C203.284 93.8677 207.204 98.4494 212.511 99.7453C213.503 100.903 214.544 102.174 215.493 103.438H215.425C215.425 103.438 209.325 111.554 209.52 123.673C209.502 125.192 209.583 126.711 209.76 128.22C205.837 127.997 197.407 126.963 190.994 122.268C182.344 115.941 172.696 117.838 174.707 121.634C176.718 125.43 187.018 128.592 188.679 128.91C188.835 128.939 189.196 129.024 189.713 129.151C187.666 129.537 186.264 130.213 186.349 131.123C186.515 132.862 195.332 138.399 200.654 138.714C204.17 138.923 208.401 140.007 211.74 140.959C212.062 148.235 210.302 150.417 210.302 150.417C210.302 150.417 210.826 150.739 211.694 151.196L211.322 152.258C209.162 153.504 206.499 154.804 204.077 155.328C200.991 155.962 197.991 156.96 195.141 158.302L183.162 164.091C182.093 164.587 181.167 165.348 180.473 166.301C179.779 167.255 179.34 168.369 179.197 169.54C178.935 171.994 179.675 175.06 183.683 177.492C183.931 179.486 185.149 181.812 188.346 183.944C194.542 188.065 210.826 200.412 213.043 202.097C213.085 205.11 212.689 211.154 208.971 212.096C204.311 213.279 208.061 217.761 211.828 217.584C212.722 217.922 213.695 217.994 214.629 217.789C218.623 216.841 233.26 211.77 234.259 204.186C234.3 203.857 234.319 203.526 234.315 203.195C234.373 201.902 234.051 200.62 233.388 199.509C233.544 199.851 233.671 200.207 233.766 200.571C232.556 197.809 229.606 196.074 227.312 195.097C227.312 195.072 227.312 195.044 227.312 195.019C226.958 194.881 226.604 194.768 226.313 194.665C226.319 194.46 226.304 194.254 226.267 194.052L203.313 178.236C203.313 178.236 213.294 170.011 223.608 171.278C233.922 172.546 235.565 170.673 235.565 170.673C235.565 170.673 240.855 165.642 241.386 159.849L241.719 159.761C241.719 159.761 241.694 159.396 241.645 158.727Z" fill="url(#paint0_linear)"/>
<path d="M213.613 199.923C213.613 199.923 214.551 210.251 209.856 211.505C205.161 212.758 209.544 217.765 213.297 216.816C217.051 215.867 230.828 210.867 231.766 203.361C232.704 195.855 222.376 193.344 222.376 193.344L213.613 199.923Z" fill="#B8616E"/>
<path opacity="0.05" d="M213.613 199.923C213.613 199.923 214.551 210.251 209.856 211.505C205.161 212.758 209.544 217.765 213.297 216.816C217.051 215.867 230.828 210.867 231.766 203.361C232.704 195.855 222.376 193.344 222.376 193.344L213.613 199.923Z" fill="black"/>
<path d="M215.5 200.235C215.5 200.235 216.438 210.563 211.743 211.816C207.048 213.07 211.432 218.076 215.185 217.127C218.938 216.178 232.715 211.179 233.653 203.673C234.591 196.166 224.263 193.656 224.263 193.656L215.5 200.235Z" fill="#B8616E"/>
<path opacity="0.1" d="M225.201 193.975L216.445 200.55C216.445 200.55 216.484 200.996 216.509 201.708C219.816 200.801 227.021 198.393 227.131 194.626C226.501 194.37 225.857 194.153 225.201 193.975Z" fill="black"/>
<path d="M219.724 103.98H215.967V106.798H219.724V103.98Z" fill="#F8BDC5"/>
<path d="M216.126 149.521C216.126 149.521 210.16 154.209 205.26 155.32C202.346 155.951 199.522 156.939 196.851 158.263L185.581 163.992C184.557 164.507 183.679 165.27 183.027 166.212C182.375 167.154 181.97 168.245 181.849 169.384C181.527 172.571 182.808 176.763 190.456 179.256L214.558 199.289L222.071 193.029L196.405 173.314L216.126 161.106V149.521Z" fill="#758AC8"/>
<path opacity="0.1" d="M216.126 149.521C216.126 149.521 210.16 154.209 205.26 155.32C202.346 155.951 199.522 156.939 196.851 158.263L185.581 163.992C184.557 164.507 183.679 165.27 183.027 166.212C182.375 167.154 181.97 168.245 181.849 169.384C181.527 172.571 182.808 176.763 190.456 179.256L214.558 199.289L222.071 193.029L196.405 173.314L216.126 161.106V149.521Z" fill="black"/>
<path d="M212.681 128.553C212.681 128.553 201.1 128.864 192.96 122.604C184.819 116.344 175.745 118.221 177.621 121.977C179.498 125.734 189.203 128.864 190.768 129.176C192.333 129.487 214.87 135.751 214.87 135.751L212.681 128.553Z" fill="#F8BDC5"/>
<path opacity="0.05" d="M212.681 128.553C212.681 128.553 201.1 128.864 192.96 122.604C184.819 116.344 175.745 118.221 177.621 121.977C179.498 125.734 189.203 128.864 190.768 129.176C192.333 129.487 214.87 135.751 214.87 135.751L212.681 128.553Z" fill="black"/>
<path d="M213.935 146.709L210.178 157.98C210.178 157.98 189.051 170.97 187.326 172.691C185.988 174.03 184.196 179.266 190.456 183.646C196.716 188.026 213.931 201.803 213.931 201.803C213.931 201.803 227.078 198.971 226.14 193.659L204.541 178.009C204.541 178.009 213.931 169.866 223.636 171.123C233.342 172.38 234.907 170.496 234.907 170.496C234.907 170.496 242.42 162.976 239.913 155.788C237.406 148.6 213.935 146.709 213.935 146.709Z" fill="#758AC8"/>
<path d="M209.24 95.7017C209.24 95.7017 219.883 107.283 219.257 110.725C218.63 114.167 227.708 100.708 227.708 100.708C227.708 100.708 224.876 93.8216 225.517 86.3082L209.24 95.7017Z" fill="#F8BDC5"/>
<path opacity="0.1" d="M218.527 106.324C219.253 105.557 220.018 104.828 220.818 104.139C222.42 102.826 223.889 101.359 225.205 99.7594C227.397 96.9269 235.533 109.149 235.533 109.149C235.533 109.149 240.54 114.783 239.917 128.245C239.294 141.706 240.699 159.704 240.699 159.704L238.805 160.231C237.209 160.764 235.512 160.918 233.846 160.681C232.181 160.445 230.594 159.824 229.21 158.868C226.71 157.14 223.544 155.328 221.137 155.165C216.442 154.853 212.214 152.19 212.214 152.19C212.214 152.19 214.25 147.34 211.12 131.686C207.99 116.033 215.967 104.908 215.967 104.908C215.967 104.908 216.598 108.314 218.527 106.324Z" fill="black"/>
<path d="M241.793 158.291L239.917 158.918L238.801 159.29C237.206 159.822 235.508 159.977 233.843 159.74C232.178 159.503 230.59 158.883 229.206 157.926C226.71 156.202 223.541 154.386 221.133 154.223C216.445 153.908 211.134 150.466 211.134 150.466C211.134 150.466 214.264 146.398 211.134 130.744C208.004 115.091 215.985 103.98 215.985 103.98C215.985 103.98 216.615 107.368 218.545 105.375C219.269 104.609 220.033 103.881 220.832 103.194C222.434 101.881 223.903 100.414 225.219 98.8141C227.411 95.9815 235.547 108.204 235.547 108.204C235.547 108.204 240.554 113.837 239.931 127.299C239.864 128.716 239.835 130.174 239.832 131.651C239.786 144.249 241.793 158.291 241.793 158.291Z" fill="#6D61F2"/>
<path opacity="0.1" d="M223.952 127.614L224.263 134.501C224.263 134.501 207.671 135.439 204.23 131.998C200.788 128.556 213.613 142.121 216.445 142.953C219.104 143.735 225.97 144.426 229.571 144.496C230.599 144.53 231.616 144.263 232.496 143.729C233.376 143.196 234.082 142.418 234.528 141.49C234.947 140.578 235.083 139.56 234.917 138.569C234.291 134.501 234.917 125.734 234.917 125.734L223.952 127.614Z" fill="black"/>
<path d="M223.952 126.988L224.263 133.874C224.263 133.874 207.671 134.813 204.23 131.371C200.788 127.929 188.335 128.691 188.58 131.371C188.736 133.092 197.031 138.569 202.034 138.884C207.038 139.2 213.613 141.494 216.445 142.326C219.104 143.109 225.97 143.799 229.571 143.87C230.599 143.903 231.615 143.636 232.495 143.103C233.376 142.569 234.082 141.791 234.528 140.864C234.947 139.951 235.083 138.933 234.917 137.943C234.29 133.874 234.917 125.107 234.917 125.107L223.952 126.988Z" fill="#F8BDC5"/>
<path opacity="0.1" d="M227.708 106.954C227.708 106.954 220.51 107.892 221.448 118.536C222.387 129.179 223.64 130.118 223.64 130.118C223.64 130.118 234.283 129.179 235.533 128.864C236.783 128.549 236.16 116.971 236.16 116.971C236.16 116.971 235.845 106.643 227.708 106.954Z" fill="black"/>
<path d="M227.708 106.643C227.708 106.643 220.51 107.581 221.448 118.224C222.387 128.868 223.64 129.806 223.64 129.806C223.64 129.806 234.283 128.868 235.533 128.553C236.783 128.238 236.16 116.659 236.16 116.659C236.16 116.659 235.845 106.324 227.708 106.643Z" fill="#6D61F2"/>
<path opacity="0.1" d="M225.046 93.025C224.553 90.5465 225.563 89.7817 225.828 86.6092L209.541 95.9992C209.541 95.9992 211.407 98.0316 213.528 100.641C214.475 100.881 215.45 101 216.427 100.995C220.694 101.013 223.027 96.4312 225.046 93.025Z" fill="black"/>
<path d="M216.123 100.694C222.519 100.694 227.705 95.5089 227.705 89.1125C227.705 82.7161 222.519 77.5308 216.123 77.5308C209.727 77.5308 204.541 82.7161 204.541 89.1125C204.541 95.5089 209.727 100.694 216.123 100.694Z" fill="#F8BDC5"/>
<path opacity="0.1" d="M219.044 85.5966C217.274 86.7225 217.249 89.2683 218.389 91.0316C219.529 92.7949 221.494 93.9598 223.385 95.0574C223.934 95.3761 224.539 95.7053 225.155 95.6345C225.629 95.5422 226.068 95.3204 226.423 94.9937C227.746 93.9613 229.009 92.8536 230.204 91.676C231.925 89.9835 233.579 87.8981 233.31 85.5364C233.005 82.8561 230.357 80.8378 229.287 78.2991C228.388 76.1747 228.657 73.7918 227.871 71.6213C227.085 69.4509 224.33 67.4433 222.27 68.5799C221.508 68.9977 221.048 69.7448 220.411 70.3077C218.832 71.7028 216.286 71.8409 214.126 71.2035C211.966 70.5662 211.325 67.9638 208.312 67.9567C209.81 68.4843 210.823 70.0457 210.592 71.4691C209.385 72.1524 207.799 71.763 206.344 71.7382C204.888 71.7134 203.157 72.5278 203.408 73.8378C203.628 74.9001 205.161 75.6896 204.934 76.7519C202.275 78.153 199.375 79.0418 196.387 79.372C195.845 79.4322 199.641 82.587 200.073 82.7959C201.656 83.5536 203.557 84.1095 205.232 84.6902C209.782 86.2587 214.441 86.8181 219.044 85.5966Z" fill="black"/>
<path d="M219.044 85.2814C217.274 86.4073 217.249 88.9531 218.389 90.7164C219.529 92.4797 221.494 93.6446 223.385 94.7422C223.934 95.0609 224.539 95.3901 225.155 95.3193C225.629 95.227 226.068 95.0052 226.423 94.6784C227.746 93.6461 229.009 92.5383 230.204 91.3608C231.925 89.6683 233.579 87.5828 233.31 85.2212C233.005 82.5408 230.357 80.5226 229.287 77.9839C228.388 75.8595 228.657 73.4766 227.871 71.3061C227.085 69.1357 224.33 67.1281 222.27 68.2647C221.508 68.6825 221.048 69.4296 220.411 69.9925C218.832 71.3876 216.286 71.5257 214.126 70.8883C211.966 70.251 211.325 67.6486 208.312 67.6415C209.81 68.169 210.823 69.7305 210.592 71.1539C209.385 71.8372 207.799 71.4478 206.344 71.423C204.888 71.3982 203.157 72.2125 203.408 73.5226C203.628 74.5848 205.161 75.3744 204.934 76.4366C202.275 77.8378 199.375 78.7266 196.387 79.0568C195.845 79.117 199.641 82.2718 200.073 82.4807C201.656 83.2384 203.557 83.7943 205.232 84.3749C209.782 85.947 214.441 86.4958 219.044 85.2814Z" fill="#916168"/>
<path opacity="0.1" d="M232.835 199.052C233.338 200.211 233.513 201.486 233.342 202.738C232.403 210.251 218.63 215.258 214.873 216.193C212.894 216.688 210.738 215.53 209.835 214.139C210.415 215.775 212.915 217.386 215.188 216.819C218.945 215.881 232.718 210.871 233.657 203.365C233.862 201.876 233.573 200.361 232.835 199.052Z" fill="white"/>
<path d="M133.359 207.589C133.079 206.958 131.627 205.73 124.627 205.464C119.833 205.284 118.201 202.752 117.758 200.281C119.334 200.075 120.566 199.792 120.97 199.399C120.97 199.399 120.948 199.286 120.913 199.084L120.97 199.041C120.664 197.259 120.504 195.454 120.492 193.645C120.483 192.097 120.646 190.554 120.98 189.042C121.175 188.043 121.257 187.025 121.225 186.008C121.264 179.989 119.15 169.409 119.15 169.409L118.859 160.617C118.83 159.52 118.506 158.452 117.921 157.523C117.336 156.595 116.512 155.841 115.535 155.342C114.839 154.982 114.069 154.79 113.286 154.782C113.286 154.782 102.19 153.033 92.2013 152.081C91.4932 151.511 88.997 149.974 83.2752 150.856L79.9823 141.218C79.9557 141.101 79.9368 140.983 79.9256 140.864C80.0425 139.639 80.8604 137.794 84.6737 137.677L85.4704 138.385C85.4704 138.385 85.612 138.105 85.8493 137.677C90.5797 137.624 116.349 137.362 117.677 137.677C119.139 138.031 131.95 135.177 132.318 134.823C137.296 129.969 117.677 132.323 117.677 132.323C115.747 132.639 109.512 132.263 103.124 131.743C106.286 127.002 109.261 110.909 109.261 110.909C109.261 110.909 120.591 105.198 117.312 101.986C114.033 98.7751 104.137 109.125 104.137 109.125C104.137 109.125 100.111 120.905 98.2807 124.474C97.5726 125.89 96.6556 126.18 95.8376 126.017C96.2094 125.72 96.4502 125.543 96.4502 125.543C96.4502 125.543 88.3986 119.117 87.6657 116.62C87.5292 116.211 87.3487 115.818 87.1275 115.448C86.7415 113.186 86.0652 110.959 84.4153 109.475C84.1381 109.178 83.8321 108.908 83.5018 108.671C83.0556 108.353 82.5493 108.077 82.128 107.73C82.3652 106.639 82.6414 105.506 82.9282 104.408C88.9049 103.7 93.5503 98.7432 93.5503 92.724C93.5494 91.8162 93.4413 90.9118 93.2281 90.0295C94.1214 90.0883 95.0146 89.9151 95.8212 89.5267C96.6277 89.1383 97.3201 88.548 97.8311 87.813C99.0385 86.0143 98.9995 83.5641 97.9869 81.6663C97.5683 80.8958 97.0196 80.2034 96.3652 79.6197C95.3219 78.5689 94.0494 77.7739 92.6474 77.297C91.433 76.8757 90.0911 76.6243 89.128 75.7993C88.6976 75.2365 88.306 74.645 87.956 74.0289C87.5518 73.4241 87.0763 72.8701 86.5397 72.379C84.7693 70.5555 82.2696 69.4331 79.7238 68.9374C76.6221 68.3319 73.4178 68.5479 70.263 68.7639C69.0839 68.8453 67.6995 69.0542 67.1684 70.081C66.7683 70.8529 67.0303 71.777 66.9772 72.6374C66.8108 75.3744 63.6808 76.8863 60.958 77.5484C58.2351 78.2105 54.9883 78.7841 53.6747 81.1847C52.4815 83.3517 53.3206 85.9789 53.703 88.4114C54.3399 92.6824 53.3915 97.0389 51.0369 100.659C49.8401 102.489 48.2963 104.118 47.351 106.083C46.3036 108.274 46.0605 110.763 46.6641 113.115C46.8411 113.802 47.096 114.503 46.9686 115.204C46.8237 115.782 46.5392 116.316 46.14 116.758C44.5119 118.769 42.4856 120.421 40.1885 121.611C37.8913 122.801 35.373 123.503 32.7915 123.673C33.0083 124.392 33.4319 125.031 34.0095 125.511C34.7433 126.237 35.5991 126.828 36.5376 127.257C39.0101 128.497 41.6101 129.464 44.2918 130.142C46.0976 130.599 47.9848 130.925 49.8224 130.613C51.66 130.302 53.4516 129.25 54.2058 127.586C54.6449 126.623 54.7086 125.532 55.0981 124.552C55.8735 122.59 57.7961 121.319 59.0955 119.637C58.658 123.971 58.4511 128.325 58.4759 132.681C58.4759 134.044 58.4759 135.273 58.4759 136.413C58.4759 141.331 58.1218 144.723 55.0733 150.866C54.71 151.512 54.5507 152.253 54.6165 152.991C54.5503 153.389 54.5888 153.798 54.7285 154.178C54.8682 154.557 55.1042 154.893 55.4132 155.154C55.2007 156.379 55.0976 157.621 55.1051 158.865C55.0627 163.34 56.5746 169.349 64.5907 170.871L78.8634 170.163C78.8634 170.163 98.9924 166.236 104.481 169.101C104.933 169.197 105.34 169.446 105.632 169.805C105.923 170.165 106.083 170.614 106.085 171.077C106.068 171.374 106.021 171.67 105.946 171.958C105.794 172.886 105.735 173.827 105.773 174.766C105.748 180.785 107.044 194.445 107.044 194.445V200.238C106.131 201.612 105.005 203.644 105.15 205.142C105.15 205.174 105.15 205.209 105.15 205.241C105.15 205.273 105.15 205.33 105.171 205.372C105.192 205.415 105.171 205.45 105.196 205.489C105.221 205.528 105.217 205.563 105.228 205.602C105.238 205.641 105.256 205.687 105.274 205.726C105.291 205.765 105.298 205.79 105.313 205.822C105.327 205.854 105.359 205.914 105.383 205.956L105.426 206.031C105.469 206.099 105.516 206.164 105.568 206.225C107.398 208.35 116.544 212.461 119.476 212.294C122.588 212.117 133.015 212.648 133.383 208.01C133.43 207.872 133.421 207.721 133.359 207.589Z" fill="url(#paint1_linear)"/>
<path d="M107.341 198.624C107.341 198.624 103.092 203.935 104.863 206.059C106.633 208.183 115.485 212.245 118.318 212.078C121.327 211.901 131.418 212.432 131.772 207.829C131.772 207.829 132.48 205.705 123.275 205.351C114.069 204.997 116.901 195.437 116.901 195.437L107.341 198.624Z" fill="#594C76"/>
<path opacity="0.1" d="M56.7089 154.01C56.7089 154.01 52.46 168.527 65.2066 171.006L79.0154 170.298C79.0154 170.298 98.4894 166.403 103.801 169.235C103.801 169.235 105.925 169.59 105.217 172.422C104.509 175.255 106.279 194.375 106.279 194.375V200.748C106.279 200.748 118.317 200.748 119.734 199.332C119.734 199.332 118.672 193.666 119.734 189.064C120.796 184.461 117.963 169.944 117.963 169.944L117.684 161.205C117.663 160.125 117.355 159.071 116.791 158.15C116.227 157.229 115.428 156.474 114.476 155.965C113.806 155.61 113.06 155.42 112.302 155.413C112.302 155.413 88.2249 151.518 79.7271 152.226C71.2294 152.934 56.7089 154.01 56.7089 154.01Z" fill="black"/>
<path d="M56.7089 153.656C56.7089 153.656 52.46 168.173 65.2066 170.652L79.0154 169.944C79.0154 169.944 98.4894 166.049 103.801 168.881C103.801 168.881 105.925 169.235 105.217 172.068C104.509 174.901 106.279 194.021 106.279 194.021V200.394C106.279 200.394 118.317 200.394 119.734 198.978C119.734 198.978 118.672 193.312 119.734 188.709C120.796 184.107 117.963 169.59 117.963 169.59L117.684 160.851C117.663 159.771 117.355 158.717 116.791 157.796C116.227 156.874 115.428 156.12 114.476 155.611C113.806 155.256 113.06 155.066 112.302 155.058C112.302 155.058 88.2249 151.164 79.7271 151.872C71.2294 152.58 56.7089 153.656 56.7089 153.656Z" fill="#8B9CD1"/>
<path d="M93.1785 124.976C93.1785 124.976 96.0111 128.517 97.7815 124.976C99.5518 121.436 103.447 109.751 103.447 109.751C103.447 109.751 113.007 99.4832 116.193 102.67C119.38 105.857 108.404 111.522 108.404 111.522C108.404 111.522 104.509 133.12 100.968 133.474C97.4274 133.828 92.1163 133.474 92.1163 133.474L90.3459 129.579L93.1785 124.976Z" fill="#F8BDC5"/>
<path opacity="0.05" d="M93.1785 124.976C93.1785 124.976 96.0111 128.517 97.7815 124.976C99.5518 121.436 103.447 109.751 103.447 109.751C103.447 109.751 113.007 99.4832 116.193 102.67C119.38 105.857 108.404 111.522 108.404 111.522C108.404 111.522 104.509 133.12 100.968 133.474C97.4274 133.828 92.1163 133.474 92.1163 133.474L90.3459 129.579L93.1785 124.976Z" fill="black"/>
<path d="M80.4319 107.273C80.4319 107.273 86.8052 114.708 87.5133 117.187C88.2215 119.665 96.0111 126.039 96.0111 126.039C96.0111 126.039 90.3459 130.288 91.4081 132.412C92.4704 134.536 83.9726 125.331 83.9726 125.331L74.0586 110.814L80.4319 107.273Z" fill="#EB6475"/>
<path opacity="0.1" d="M80.4319 107.273C80.4319 107.273 86.8052 114.708 87.5133 117.187C88.2215 119.665 96.0111 126.039 96.0111 126.039C96.0111 126.039 90.3459 130.288 91.4081 132.412C92.4704 134.536 83.9726 125.331 83.9726 125.331L74.0586 110.814L80.4319 107.273Z" fill="black"/>
<path d="M84.6807 98.7751C84.6807 98.7751 81.494 109.043 81.494 112.938C81.494 116.833 68.0393 111.876 68.3933 109.751C68.7474 107.627 76.1829 99.8373 76.537 96.6507C76.8911 93.464 84.6807 98.7751 84.6807 98.7751Z" fill="#F8BDC5"/>
<path opacity="0.1" d="M74.0585 105.857C74.0585 105.857 61.666 102.67 59.8956 120.728C58.1252 138.785 61.3119 140.91 56.0008 151.886C50.6897 162.862 92.1162 153.302 92.1162 153.302C92.1162 153.302 89.9918 150.824 83.2644 151.886L80.0777 142.326C80.0777 142.326 79.0155 138.077 85.0347 138.077C91.054 138.077 88.2214 125.685 88.2214 125.685C88.2214 125.685 85.0347 115.062 83.2644 114C81.494 112.938 78.3074 106.565 74.0585 105.857Z" fill="black"/>
<path d="M74.0585 105.148C74.0585 105.148 61.666 101.962 59.8956 120.019C58.1252 138.077 61.3119 140.202 56.0008 151.178C50.6897 162.154 92.1162 152.594 92.1162 152.594C92.1162 152.594 89.9918 150.116 83.2644 151.178L80.0777 141.618C80.0777 141.618 79.0155 137.369 85.0347 137.369C91.054 137.369 88.2214 124.976 88.2214 124.976C88.2214 124.976 85.0347 114.354 83.2644 113.292C81.494 112.23 78.3074 105.857 74.0585 105.148Z" fill="#EB6475"/>
<path d="M86.451 130.642C86.451 130.642 112.298 133.474 116.547 132.766C116.547 132.766 135.525 130.429 130.71 135.245C130.356 135.599 117.963 138.431 116.547 138.077C115.131 137.723 85.0347 138.077 85.0347 138.077L84.6807 134.536L86.451 130.642Z" fill="#F8BDC5"/>
<path opacity="0.1" d="M66.6229 121.79L85.3888 138.785C85.3888 138.785 88.9295 131.704 89.9917 131.704C91.0539 131.704 77.2451 110.814 77.2451 110.814C77.2451 110.814 73.7044 106.565 71.58 108.689C69.4555 110.814 63.0822 109.397 66.6229 121.79Z" fill="black"/>
<path d="M66.2689 121.082L85.0348 138.077C85.0348 138.077 88.5755 130.996 89.6377 130.996C90.6999 130.996 76.8911 110.105 76.8911 110.105C76.8911 110.105 73.3504 105.857 71.226 107.981C69.1015 110.105 62.7282 108.689 66.2689 121.082Z" fill="#EB6475"/>
<path d="M81.494 105.148C87.9471 105.148 93.1784 99.9171 93.1784 93.464C93.1784 87.0109 87.9471 81.7796 81.494 81.7796C75.0409 81.7796 69.8096 87.0109 69.8096 93.464C69.8096 99.9171 75.0409 105.148 81.494 105.148Z" fill="#F8BDC5"/>
<path opacity="0.1" d="M91.7267 90.5288C93.7095 91.3113 96.1384 90.373 97.3069 88.592C98.4753 86.811 98.4399 84.3856 97.4556 82.4949C96.4713 80.6041 94.6513 79.2303 92.6438 78.5151C91.4257 78.0831 90.0696 77.8353 89.1349 76.943C88.5436 76.38 88.1931 75.6188 87.7505 74.9319C86.097 72.3542 83.1475 70.8317 80.1485 70.2333C77.1495 69.635 74.0479 69.8474 70.9958 70.0598C69.8557 70.1413 68.5173 70.3466 68.0003 71.3664C67.6144 72.1312 67.8658 73.0482 67.8162 73.9015C67.6569 76.6173 64.6296 78.1221 61.9846 78.7736C59.3397 79.4251 56.2734 80.0376 54.9846 82.4311C53.8303 84.5804 54.6553 87.1863 55.0129 89.6011C55.6245 93.8191 54.7104 98.1169 52.4353 101.721C51.2775 103.537 49.7868 105.152 48.8698 107.103C47.8554 109.283 47.6204 111.745 48.2041 114.078C48.3776 114.761 48.6219 115.455 48.5016 116.149C48.3628 116.72 48.0883 117.248 47.7014 117.69C46.1496 119.675 44.1985 121.313 41.9742 122.497C39.75 123.682 37.3019 124.386 34.7883 124.566C35.192 126.085 36.6614 127.044 38.06 127.752C40.4465 128.98 42.9615 129.939 45.5592 130.613C47.3048 131.067 49.1318 131.389 50.9093 131.081C52.6867 130.773 54.4181 129.728 55.1581 128.078C55.583 127.122 55.6467 126.042 56.0221 125.065C56.8683 122.873 59.1237 121.549 60.3347 119.534C61.4925 117.608 61.9421 117.382 62.236 115.158C62.5299 112.934 63.1779 110.534 65.0049 109.227C66.9169 107.857 69.6078 108.119 71.7322 109.171C73.8567 110.222 75.1703 109.812 76.9442 111.355C80.0561 114.059 83.5389 116.303 87.2866 118.019C86.9326 114.931 86.3625 111.486 83.8557 109.649C83.1475 109.121 82.2517 108.717 81.8764 107.91C81.278 106.625 82.3013 105.056 81.8375 103.714C81.3736 102.372 79.6103 101.877 78.8278 100.659C78.1622 99.6249 78.3428 98.2192 78.9659 97.157C79.5891 96.0948 80.5734 95.3087 81.5542 94.5652C82.4252 93.9066 83.3081 93.2634 84.2027 92.6355C85.0111 92.1225 85.7369 91.4898 86.3554 90.7589C86.7095 90.2738 86.9432 89.2116 87.4354 88.8682C88.6746 88.0113 90.5795 90.0791 91.7267 90.5288Z" fill="black"/>
<path d="M91.3727 90.1747C93.3555 90.9572 95.7844 90.0189 96.9529 88.2379C98.1213 86.4569 98.0859 84.0315 97.1016 82.1408C96.1173 80.2501 94.2973 78.8762 92.2898 78.161C91.0717 77.729 89.7156 77.4812 88.7809 76.5889C88.1896 76.026 87.8391 75.2647 87.3965 74.5778C85.743 72.0002 82.7935 70.4776 79.7945 69.8793C76.7955 69.2809 73.6939 69.4933 70.6418 69.7058C69.5017 69.7872 68.1633 69.9926 67.6463 71.0123C67.2604 71.7771 67.5118 72.6941 67.4622 73.5475C67.3029 76.2632 64.2755 77.768 61.6306 78.4195C58.9857 79.071 55.9194 79.6835 54.6306 82.0771C53.4763 84.2263 54.3013 86.8323 54.6589 89.247C55.2705 93.4651 54.3564 97.7628 52.0813 101.367C50.9235 103.183 49.4328 104.798 48.5158 106.749C47.5013 108.929 47.2664 111.391 47.8501 113.724C48.0236 114.407 48.2679 115.101 48.1475 115.795C48.0088 116.366 47.7343 116.894 47.3474 117.336C45.7956 119.321 43.8445 120.959 41.6202 122.143C39.3959 123.328 36.9479 124.032 34.4343 124.212C34.838 125.731 36.3074 126.69 37.706 127.398C40.0925 128.626 42.6075 129.585 45.2052 130.259C46.9508 130.712 48.7778 131.035 50.5552 130.727C52.3327 130.419 54.0641 129.374 54.8041 127.724C55.229 126.768 55.2927 125.688 55.6681 124.711C56.5143 122.519 58.7697 121.195 59.9806 119.18C61.1385 117.254 61.5881 117.028 61.882 114.804C62.1759 112.58 62.8239 110.18 64.6509 108.873C66.5629 107.503 69.2538 107.765 71.3782 108.817C73.5027 109.868 74.8163 109.457 76.5902 111.001C79.7021 113.705 83.1849 115.949 86.9326 117.665C86.5786 114.577 86.0085 111.132 83.5017 109.295C82.7935 108.767 81.8977 108.363 81.5224 107.556C80.924 106.271 81.9473 104.702 81.4835 103.36C81.0196 102.018 79.2563 101.523 78.4738 100.305C77.8082 99.2708 77.9888 97.8652 78.6119 96.8029C79.2351 95.7407 80.2194 94.9547 81.2002 94.2111C82.0712 93.5526 82.954 92.9093 83.8487 92.2814C84.6571 91.7684 85.3829 91.1357 86.0014 90.4049C86.3555 89.9198 86.5892 88.8576 87.0814 88.5141C88.3206 87.6573 90.2255 89.725 91.3727 90.1747Z" fill="#916168"/>
<g opacity="0.1">
<path opacity="0.1" d="M116.498 198.227C116.524 197.284 116.66 196.348 116.901 195.437L116.724 195.497C116.548 196.396 116.472 197.311 116.498 198.227Z" fill="white"/>
<path opacity="0.1" d="M118.318 211.37C115.485 211.537 106.633 207.475 104.863 205.351C104.63 205.063 104.488 204.714 104.452 204.345C104.4 204.644 104.41 204.95 104.481 205.245C104.551 205.539 104.681 205.816 104.863 206.059C106.633 208.183 115.485 212.245 118.318 212.078C121.327 211.901 131.418 212.432 131.772 207.829C131.799 207.702 131.781 207.57 131.723 207.454C130.912 211.696 121.253 211.197 118.318 211.37Z" fill="white"/>
</g>
<path d="M132.658 105.68H132.303V120.196H132.658V105.68Z" fill="#FFD77C" stroke="#FFAB50" stroke-width="0.25" stroke-miterlimit="10"/>
<path d="M133.012 105.68H132.657V120.196H133.012V105.68Z" fill="#FFD77C" stroke="#FFAB50" stroke-width="0.25" stroke-miterlimit="10"/>
<path d="M133.366 105.68H133.012V120.196H133.366V105.68Z" fill="#FFD77C" stroke="#FFAB50" stroke-width="0.25" stroke-miterlimit="10"/>
<path d="M133.72 105.68H133.366V120.196H133.72V105.68Z" fill="#FFD77C" stroke="#FFAB50" stroke-width="0.25" stroke-miterlimit="10"/>
<path d="M134.074 105.68H133.72V120.196H134.074V105.68Z" fill="#FFD77C" stroke="#FFAB50" stroke-width="0.25" stroke-miterlimit="10"/>
<path d="M134.428 105.68H134.074V120.196H134.428V105.68Z" fill="#FFD77C" stroke="#FFAB50" stroke-width="0.25" stroke-miterlimit="10"/>
<path d="M134.782 105.68H134.428V120.196H134.782V105.68Z" fill="#FFD77C" stroke="#FFAB50" stroke-width="0.25" stroke-miterlimit="10"/>
</g>
<defs>
<linearGradient id="paint0_linear" x1="208.656" y1="217.92" x2="208.656" y2="66.7316" gradientUnits="userSpaceOnUse">
<stop stop-color="#808080" stop-opacity="0.25"/>
<stop offset="0.54" stop-color="#808080" stop-opacity="0.12"/>
<stop offset="1" stop-color="#808080" stop-opacity="0.1"/>
</linearGradient>
<linearGradient id="paint1_linear" x1="38411.9" y1="103312" x2="38411.9" y2="44946.5" gradientUnits="userSpaceOnUse">
<stop stop-color="#808080" stop-opacity="0.25"/>
<stop offset="0.54" stop-color="#808080" stop-opacity="0.12"/>
<stop offset="1" stop-color="#808080" stop-opacity="0.1"/>
</linearGradient>
<clipPath id="clip0">
<rect width="320" height="232.675" fill="white" transform="translate(0.5 0.962616)"/>
</clipPath>
</defs>
</svg>
