<svg width="321" height="176" viewBox="0 0 321 176" fill="none" xmlns="http://www.w3.org/2000/svg">
<g clip-path="url(#clip0)">
<path d="M43.5314 92.0121H33.2904C32.9303 92.0121 32.5849 92.1551 32.3303 92.4097C32.0757 92.6644 31.9326 93.0097 31.9326 93.3698V97.8649C31.9326 98.225 32.0757 98.5703 32.3303 98.825C32.5849 99.0796 32.9303 99.2226 33.2904 99.2226H34.9875V105.958H41.8343V99.2226H43.5314C43.8915 99.2226 44.2368 99.0796 44.4915 98.825C44.7461 98.5703 44.8891 98.225 44.8891 97.8649V93.3698C44.8891 93.0097 44.7461 92.6644 44.4915 92.4097C44.2368 92.1551 43.8915 92.0121 43.5314 92.0121Z" fill="#6D61F2"/>
<path d="M53.7888 133.151C47.5169 123.974 44.3106 113.046 44.6292 101.935C44.6349 101.679 44.5517 101.428 44.3937 101.226C44.2357 101.024 44.0127 100.883 43.7624 100.827V98.8847H32.9466V100.8H32.7975C32.645 100.8 32.4941 100.832 32.3544 100.893C32.2146 100.954 32.0889 101.043 31.9852 101.155C31.8815 101.267 31.8019 101.399 31.7515 101.543C31.7011 101.687 31.6809 101.84 31.6922 101.992C32.5443 113.87 29.667 124.522 23.0603 133.948C22.6801 134.489 22.4859 135.14 22.5068 135.801L23.6894 172.384C23.7179 173.2 24.0603 173.974 24.6454 174.543C25.2304 175.113 26.0128 175.434 26.8292 175.441H51.2932C52.1189 175.434 52.9094 175.105 53.4963 174.524C54.0831 173.943 54.4199 173.156 54.4349 172.33L54.8906 136.811C54.9041 135.507 54.5198 134.231 53.7888 133.151Z" fill="#3F3D56"/>
<path opacity="0.2" d="M41.3964 93.4767C41.3964 94.2536 41.0878 94.9987 40.5385 95.5481C39.9891 96.0974 39.244 96.406 38.4671 96.406C37.6902 96.406 36.9452 96.0974 36.3958 95.5481C35.8465 94.9987 35.5378 94.2536 35.5378 93.4767" fill="black"/>
<path d="M49.9161 145.303H46.9538C46.6709 143.468 45.7407 141.794 44.3312 140.585C42.9217 139.376 41.1262 138.712 39.2693 138.712C37.4124 138.712 35.6168 139.376 34.2074 140.585C32.7979 141.794 31.8676 143.468 31.5848 145.303H28.6222C28.307 145.303 27.9956 145.371 27.7092 145.503C27.4228 145.634 27.1682 145.826 26.963 146.066C26.7577 146.305 26.6067 146.586 26.5201 146.889C26.4335 147.192 26.4135 147.51 26.4615 147.821L29.6793 168.737H48.1564L52.0649 147.892C52.1241 147.576 52.113 147.251 52.0324 146.94C51.9518 146.629 51.8036 146.34 51.5985 146.093C51.3933 145.846 51.1362 145.647 50.8454 145.51C50.5547 145.374 50.2374 145.303 49.9161 145.303Z" fill="#6D61F2"/>
<path d="M298.861 111.684L298.15 140.085L297.27 175.304H267.316L266.284 134.041L265.725 111.684H298.861Z" fill="#E6E6E6"/>
<path d="M284.281 96.5738H280.04V152.772H284.281V96.5738Z" fill="#6D61F2"/>
<path d="M296.74 133.084L295.938 173.452H268.635L267.695 126.157C270.155 125.466 272.73 125.289 275.262 125.637C277.793 125.985 280.225 126.851 282.407 128.18C286.969 130.878 292.094 132.331 296.74 133.084Z" fill="#3F3D56"/>
<path d="M275.394 137.628H271.502V141.52H275.394V137.628Z" fill="#E6E6E6"/>
<path d="M278.045 129.676H274.153V133.568H278.045V129.676Z" fill="#E6E6E6"/>
<path d="M286.402 135.181L283.276 132.863L280.958 135.989L284.083 138.307L286.402 135.181Z" fill="#E6E6E6"/>
<path d="M293.434 142.077L290.308 139.759L287.989 142.885L291.115 145.203L293.434 142.077Z" fill="#E6E6E6"/>
<path d="M281.505 146.053L278.379 143.735L276.06 146.861L279.186 149.179L281.505 146.053Z" fill="#E6E6E6"/>
<path d="M290.643 128.119C291.082 128.119 291.439 127.763 291.439 127.324C291.439 126.885 291.082 126.529 290.643 126.529C290.204 126.529 289.848 126.885 289.848 127.324C289.848 127.763 290.204 128.119 290.643 128.119Z" fill="#3F3D56"/>
<path d="M274.473 122.817C274.912 122.817 275.268 122.461 275.268 122.022C275.268 121.583 274.912 121.227 274.473 121.227C274.034 121.227 273.678 121.583 273.678 122.022C273.678 122.461 274.034 122.817 274.473 122.817Z" fill="#3F3D56"/>
<path d="M287.992 117.251C288.432 117.251 288.788 116.894 288.788 116.455C288.788 116.016 288.432 115.66 287.992 115.66C287.553 115.66 287.197 116.016 287.197 116.455C287.197 116.894 287.553 117.251 287.992 117.251Z" fill="#3F3D56"/>
<path d="M160.683 175.062C208.797 175.062 247.802 136.057 247.802 87.9432C247.802 39.829 208.797 0.824677 160.683 0.824677C112.569 0.824677 73.5646 39.829 73.5646 87.9432C73.5646 136.057 112.569 175.062 160.683 175.062Z" fill="#6D61F2"/>
<path opacity="0.2" d="M160.683 151.531C145.972 151.531 131.716 146.43 120.344 137.097C108.972 127.765 101.188 114.777 98.3176 100.349C95.4476 85.92 97.6694 70.9426 104.604 57.9684C111.539 44.9942 122.758 34.8259 136.35 29.1962C149.941 23.5664 165.064 22.8235 179.142 27.094C193.22 31.3645 205.382 40.3843 213.555 52.6163C221.728 64.8483 225.407 79.5359 223.965 94.1764C222.523 108.817 216.049 122.504 205.647 132.907C199.756 138.83 192.749 143.526 185.03 146.723C177.312 149.92 169.037 151.554 160.683 151.531ZM160.683 28.2768C127.783 28.2768 101.017 55.043 101.017 87.9432C101.017 120.843 127.783 147.61 160.683 147.61C193.583 147.61 220.35 120.843 220.35 87.9432C220.35 55.043 193.583 28.2768 160.683 28.2768Z" fill="black"/>
<path d="M160.683 149.571C194.719 149.571 222.31 121.979 222.31 87.9432C222.31 53.9074 194.719 26.316 160.683 26.316C126.647 26.316 99.0558 53.9074 99.0558 87.9432C99.0558 121.979 126.647 149.571 160.683 149.571Z" fill="#3F3D56"/>
<path d="M114.852 63.301C114.385 62.3857 114.103 61.3871 114.021 60.3626C113.94 59.338 114.062 58.3074 114.379 57.3298C114.696 56.3523 115.203 55.4468 115.871 54.6652C116.538 53.8837 117.353 53.2413 118.269 52.7749C119.185 52.3085 120.184 52.0272 121.208 51.947C122.233 51.8669 123.263 51.9895 124.241 52.3078C125.218 52.6262 126.123 53.134 126.904 53.8023C127.684 54.4706 128.326 55.2862 128.791 56.2026L146.203 90.393C146.67 91.3084 146.952 92.3069 147.034 93.3315C147.115 94.3561 146.993 95.3866 146.676 96.3642C146.359 97.3418 145.852 98.2473 145.184 99.0288C144.517 99.8104 143.702 100.453 142.786 100.919C141.87 101.386 140.871 101.667 139.847 101.747C138.822 101.827 137.792 101.705 136.814 101.386C135.837 101.068 134.932 100.56 134.151 99.8918C133.37 99.2235 132.729 98.4078 132.264 97.4914L114.852 63.301Z" fill="#FF6584"/>
<path opacity="0.2" d="M116.794 67.1146L115.991 65.5366C120.001 62.4204 124.711 60.1286 129.93 58.4381L130.733 60.0161C125.085 61.1925 120.279 63.3694 116.794 67.1146Z" fill="black"/>
<path opacity="0.2" d="M120.544 74.4787L119.741 72.9007C123.751 69.7845 128.461 67.4927 133.68 65.8022L134.483 67.3802C128.835 68.5565 124.029 70.7335 120.544 74.4787Z" fill="black"/>
<path opacity="0.2" d="M124.294 81.8428L123.491 80.2647C127.501 77.1486 132.211 74.8568 137.43 73.1663L138.234 74.7443C132.585 75.9206 127.779 78.0975 124.294 81.8428Z" fill="black"/>
<path opacity="0.2" d="M128.045 89.2068L127.241 87.6288C131.252 84.5127 135.961 82.2209 141.18 80.5304L141.984 82.1084C136.335 83.2847 131.529 85.4616 128.045 89.2068Z" fill="black"/>
<path opacity="0.2" d="M131.795 96.5709L130.991 94.9929C135.002 91.8767 139.711 89.585 144.93 87.8945L145.734 89.4725C140.085 90.6488 135.279 92.8257 131.795 96.5709Z" fill="black"/>
<path d="M101.79 76.1007C101.322 75.1853 101.04 74.1868 100.959 73.1623C100.878 72.1378 101 71.1073 101.317 70.1298C101.634 69.1523 102.141 68.2469 102.809 67.4654C103.476 66.6839 104.291 66.0416 105.207 65.5753C106.123 65.1089 107.121 64.8276 108.146 64.7474C109.17 64.6673 110.201 64.7898 111.178 65.1081C112.155 65.4263 113.06 65.9341 113.841 66.6023C114.622 67.2704 115.263 68.086 115.729 69.0022L133.14 103.193C134.079 105.041 134.246 107.186 133.603 109.157C132.961 111.128 131.563 112.763 129.716 113.704C127.869 114.645 125.724 114.814 123.752 114.174C121.781 113.534 120.144 112.137 119.201 110.291L101.79 76.1007Z" fill="#FF6584"/>
<path opacity="0.2" d="M103.732 79.9142L102.928 78.3362C106.939 75.22 111.648 72.9283 116.867 71.2378L117.671 72.8158C112.022 73.9921 107.216 76.169 103.732 79.9142Z" fill="black"/>
<path opacity="0.2" d="M107.482 87.2783L106.678 85.7003C110.689 82.5841 115.398 80.2924 120.618 78.6019L121.421 80.1799C115.772 81.3562 110.967 83.5331 107.482 87.2783Z" fill="black"/>
<path opacity="0.2" d="M111.232 94.6424L110.428 93.0644C114.439 89.9482 119.148 87.6565 124.368 85.9659L125.171 87.544C119.522 88.7203 114.717 90.8972 111.232 94.6424Z" fill="black"/>
<path opacity="0.2" d="M114.982 102.006L114.179 100.428C118.189 97.3123 122.899 95.0205 128.118 93.33L128.921 94.908C123.273 96.0843 118.467 98.2613 114.982 102.006Z" fill="black"/>
<path opacity="0.2" d="M118.732 109.371L117.929 107.793C121.939 104.676 126.649 102.385 131.868 100.694L132.671 102.272C127.023 103.448 122.217 105.625 118.732 109.371Z" fill="black"/>
<path d="M201.861 89.9041L201.916 89.9041C203.792 89.9199 205.628 89.37 207.186 88.3263C208.745 87.2826 209.952 85.7935 210.651 84.0533C212.089 80.4185 212.814 76.5408 212.786 72.632C212.688 56.0876 199.228 42.5149 182.685 42.286C175.64 42.1874 168.777 44.5281 163.26 48.9113C157.743 53.2945 153.912 59.4506 152.416 66.3359C150.919 73.2212 151.85 80.4122 155.05 86.6898C158.25 92.9673 163.522 97.9453 169.973 100.78C171.677 101.535 173.57 101.757 175.403 101.417C177.237 101.077 178.924 100.191 180.245 98.875C183.078 96.0272 186.446 93.7683 190.156 92.2287C193.866 90.689 197.845 89.899 201.861 89.9041Z" fill="#E6E6E6"/>
<path d="M186.174 80.66C191.744 80.66 196.259 76.145 196.259 70.5756C196.259 65.0061 191.744 60.4911 186.174 60.4911C180.605 60.4911 176.09 65.0061 176.09 70.5756C176.09 76.145 180.605 80.66 186.174 80.66Z" fill="#F9A825"/>
<path d="M164.257 69.4416C164.913 69.4416 165.445 68.9097 165.445 68.2536C165.445 67.5975 164.913 67.0656 164.257 67.0656C163.601 67.0656 163.069 67.5975 163.069 68.2536C163.069 68.9097 163.601 69.4416 164.257 69.4416Z" fill="#3F3D56"/>
<path d="M125.04 70.5621C125.696 70.5621 126.228 70.0302 126.228 69.3741C126.228 68.7179 125.696 68.1861 125.04 68.1861C124.384 68.1861 123.852 68.7179 123.852 69.3741C123.852 70.0302 124.384 70.5621 125.04 70.5621Z" fill="#3F3D56"/>
<path d="M170.589 57.1296C171.245 57.1296 171.777 56.5977 171.777 55.9416C171.777 55.2855 171.245 54.7536 170.589 54.7536C169.933 54.7536 169.401 55.2855 169.401 55.9416C169.401 56.5977 169.933 57.1296 170.589 57.1296Z" fill="#3F3D56"/>
<path d="M170.555 91.3722C171.211 91.3722 171.743 90.8403 171.743 90.1842C171.743 89.5281 171.211 88.9962 170.555 88.9962C169.899 88.9962 169.367 89.5281 169.367 90.1842C169.367 90.8403 169.899 91.3722 170.555 91.3722Z" fill="#3F3D56"/>
<path d="M194.085 54.676C194.741 54.676 195.273 54.1441 195.273 53.488C195.273 52.8319 194.741 52.3 194.085 52.3C193.429 52.3 192.897 52.8319 192.897 53.488C192.897 54.1441 193.429 54.676 194.085 54.676Z" fill="#3F3D56"/>
<path d="M117.331 87.1704C117.987 87.1704 118.519 86.6385 118.519 85.9824C118.519 85.3263 117.987 84.7944 117.331 84.7944C116.675 84.7944 116.143 85.3263 116.143 85.9824C116.143 86.6385 116.675 87.1704 117.331 87.1704Z" fill="#3F3D56"/>
<path d="M126.015 104.258C126.671 104.258 127.203 103.726 127.203 103.07C127.203 102.414 126.671 101.882 126.015 101.882C125.359 101.882 124.827 102.414 124.827 103.07C124.827 103.726 125.359 104.258 126.015 104.258Z" fill="#3F3D56"/>
<path d="M180.572 109.793C183.047 109.793 185.054 107.786 185.054 105.311C185.054 102.836 183.047 100.829 180.572 100.829C178.097 100.829 176.09 102.836 176.09 105.311C176.09 107.786 178.097 109.793 180.572 109.793Z" fill="#FF6584"/>
<path opacity="0.2" d="M183.933 105.591C183.933 106.483 183.579 107.338 182.949 107.968C182.318 108.598 181.463 108.953 180.572 108.953C179.68 108.953 178.825 108.598 178.195 107.968C177.565 107.338 177.21 106.483 177.21 105.591" fill="black"/>
<path opacity="0.2" d="M177.21 105.031C177.21 104.139 177.565 103.284 178.195 102.654C178.825 102.023 179.68 101.669 180.572 101.669C181.463 101.669 182.318 102.023 182.949 102.654C183.579 103.284 183.933 104.139 183.933 105.031" fill="black"/>
<path d="M178.891 104.19C179.046 104.19 179.171 104.002 179.171 103.77C179.171 103.538 179.046 103.35 178.891 103.35C178.736 103.35 178.611 103.538 178.611 103.77C178.611 104.002 178.736 104.19 178.891 104.19Z" fill="#FF6584"/>
<path d="M180.572 103.63C180.727 103.63 180.852 103.442 180.852 103.21C180.852 102.978 180.727 102.79 180.572 102.79C180.417 102.79 180.292 102.978 180.292 103.21C180.292 103.442 180.417 103.63 180.572 103.63Z" fill="#FF6584"/>
<path d="M180.572 107.272C180.727 107.272 180.852 107.084 180.852 106.852C180.852 106.62 180.727 106.431 180.572 106.431C180.417 106.431 180.292 106.62 180.292 106.852C180.292 107.084 180.417 107.272 180.572 107.272Z" fill="#FF6584"/>
<path d="M182.253 105.031C182.407 105.031 182.533 104.843 182.533 104.611C182.533 104.379 182.407 104.19 182.253 104.19C182.098 104.19 181.973 104.379 181.973 104.611C181.973 104.843 182.098 105.031 182.253 105.031Z" fill="#FF6584"/>
<path d="M181.973 108.112C182.127 108.112 182.253 107.924 182.253 107.692C182.253 107.46 182.127 107.272 181.973 107.272C181.818 107.272 181.692 107.46 181.692 107.692C181.692 107.924 181.818 108.112 181.973 108.112Z" fill="#FF6584"/>
<path d="M178.611 106.712C178.766 106.712 178.891 106.523 178.891 106.291C178.891 106.059 178.766 105.871 178.611 105.871C178.456 105.871 178.331 106.059 178.331 106.291C178.331 106.523 178.456 106.712 178.611 106.712Z" fill="#FF6584"/>
<path d="M189.536 97.7476C192.011 97.7476 194.018 95.7409 194.018 93.2656C194.018 90.7903 192.011 88.7836 189.536 88.7836C187.061 88.7836 185.054 90.7903 185.054 93.2656C185.054 95.7409 187.061 97.7476 189.536 97.7476Z" fill="#FF6584"/>
<path opacity="0.2" d="M192.897 93.5457C192.897 94.4372 192.543 95.2922 191.913 95.9226C191.282 96.553 190.427 96.9072 189.536 96.9072C188.644 96.9072 187.789 96.553 187.159 95.9226C186.528 95.2922 186.174 94.4372 186.174 93.5457" fill="black"/>
<path opacity="0.2" d="M186.174 92.9855C186.174 92.0939 186.528 91.2389 187.159 90.6085C187.789 89.9781 188.644 89.624 189.536 89.624C190.427 89.624 191.282 89.9781 191.913 90.6085C192.543 91.2389 192.897 92.0939 192.897 92.9855" fill="black"/>
<path d="M187.855 92.1451C188.01 92.1451 188.135 91.957 188.135 91.7249C188.135 91.4929 188.01 91.3047 187.855 91.3047C187.7 91.3047 187.575 91.4929 187.575 91.7249C187.575 91.957 187.7 92.1451 187.855 92.1451Z" fill="#FF6584"/>
<path d="M189.536 91.5849C189.691 91.5849 189.816 91.3967 189.816 91.1647C189.816 90.9326 189.691 90.7445 189.536 90.7445C189.381 90.7445 189.256 90.9326 189.256 91.1647C189.256 91.3967 189.381 91.5849 189.536 91.5849Z" fill="#FF6584"/>
<path d="M189.536 95.2265C189.691 95.2265 189.816 95.0383 189.816 94.8063C189.816 94.5742 189.691 94.3861 189.536 94.3861C189.381 94.3861 189.256 94.5742 189.256 94.8063C189.256 95.0383 189.381 95.2265 189.536 95.2265Z" fill="#FF6584"/>
<path d="M191.217 92.9855C191.371 92.9855 191.497 92.7973 191.497 92.5653C191.497 92.3332 191.371 92.1451 191.217 92.1451C191.062 92.1451 190.937 92.3332 190.937 92.5653C190.937 92.7973 191.062 92.9855 191.217 92.9855Z" fill="#FF6584"/>
<path d="M190.936 96.0668C191.091 96.0668 191.217 95.8787 191.217 95.6466C191.217 95.4146 191.091 95.2265 190.936 95.2265C190.782 95.2265 190.656 95.4146 190.656 95.6466C190.656 95.8787 190.782 96.0668 190.936 96.0668Z" fill="#FF6584"/>
<path d="M187.575 94.6662C187.73 94.6662 187.855 94.4781 187.855 94.246C187.855 94.014 187.73 93.8258 187.575 93.8258C187.42 93.8258 187.295 94.014 187.295 94.246C187.295 94.4781 187.42 94.6662 187.575 94.6662Z" fill="#FF6584"/>
<path d="M198.5 103.91C200.975 103.91 202.982 101.904 202.982 99.4283C202.982 96.953 200.975 94.9463 198.5 94.9463C196.024 94.9463 194.018 96.953 194.018 99.4283C194.018 101.904 196.024 103.91 198.5 103.91Z" fill="#6D61F2"/>
<path opacity="0.2" d="M201.861 99.7085C201.861 100.6 201.507 101.455 200.877 102.085C200.246 102.716 199.391 103.07 198.5 103.07C197.608 103.07 196.753 102.716 196.123 102.085C195.492 101.455 195.138 100.6 195.138 99.7085" fill="black"/>
<path opacity="0.2" d="M195.138 99.1482C195.138 98.2567 195.492 97.4017 196.123 96.7713C196.753 96.1409 197.608 95.7867 198.5 95.7867C199.391 95.7867 200.246 96.1409 200.877 96.7713C201.507 97.4017 201.861 98.2567 201.861 99.1482" fill="black"/>
<path d="M196.819 98.3078C196.974 98.3078 197.099 98.1197 197.099 97.8876C197.099 97.6556 196.974 97.4675 196.819 97.4675C196.664 97.4675 196.539 97.6556 196.539 97.8876C196.539 98.1197 196.664 98.3078 196.819 98.3078Z" fill="#6D61F2"/>
<path d="M198.5 97.7476C198.655 97.7476 198.78 97.5595 198.78 97.3274C198.78 97.0953 198.655 96.9072 198.5 96.9072C198.345 96.9072 198.22 97.0953 198.22 97.3274C198.22 97.5595 198.345 97.7476 198.5 97.7476Z" fill="#6D61F2"/>
<path d="M198.5 101.389C198.655 101.389 198.78 101.201 198.78 100.969C198.78 100.737 198.655 100.549 198.5 100.549C198.345 100.549 198.22 100.737 198.22 100.969C198.22 101.201 198.345 101.389 198.5 101.389Z" fill="#6D61F2"/>
<path d="M200.181 99.1482C200.335 99.1482 200.461 98.9601 200.461 98.728C200.461 98.496 200.335 98.3078 200.181 98.3078C200.026 98.3078 199.9 98.496 199.9 98.728C199.9 98.9601 200.026 99.1482 200.181 99.1482Z" fill="#6D61F2"/>
<path d="M199.9 102.23C200.055 102.23 200.181 102.041 200.181 101.809C200.181 101.577 200.055 101.389 199.9 101.389C199.746 101.389 199.62 101.577 199.62 101.809C199.62 102.041 199.746 102.23 199.9 102.23Z" fill="#6D61F2"/>
<path d="M196.539 100.829C196.694 100.829 196.819 100.641 196.819 100.409C196.819 100.177 196.694 99.9886 196.539 99.9886C196.384 99.9886 196.259 100.177 196.259 100.409C196.259 100.641 196.384 100.829 196.539 100.829Z" fill="#6D61F2"/>
<path d="M176.09 104.471C178.565 104.471 180.572 102.464 180.572 99.9886C180.572 97.5132 178.565 95.5066 176.09 95.5066C173.615 95.5066 171.608 97.5132 171.608 99.9886C171.608 102.464 173.615 104.471 176.09 104.471Z" fill="#6D61F2"/>
<path opacity="0.2" d="M179.451 100.269C179.451 101.16 179.097 102.015 178.467 102.646C177.836 103.276 176.981 103.63 176.09 103.63C175.198 103.63 174.343 103.276 173.713 102.646C173.083 102.015 172.728 101.16 172.728 100.269" fill="black"/>
<path opacity="0.2" d="M172.728 99.7085C172.728 98.8169 173.083 97.9619 173.713 97.3315C174.343 96.7011 175.198 96.347 176.09 96.347C176.981 96.347 177.836 96.7011 178.467 97.3315C179.097 97.9619 179.451 98.8169 179.451 99.7085" fill="black"/>
<path d="M174.409 98.8681C174.564 98.8681 174.689 98.6799 174.689 98.4479C174.689 98.2158 174.564 98.0277 174.409 98.0277C174.254 98.0277 174.129 98.2158 174.129 98.4479C174.129 98.6799 174.254 98.8681 174.409 98.8681Z" fill="#6D61F2"/>
<path d="M176.09 98.3078C176.245 98.3078 176.37 98.1197 176.37 97.8876C176.37 97.6556 176.245 97.4675 176.09 97.4675C175.935 97.4675 175.81 97.6556 175.81 97.8876C175.81 98.1197 175.935 98.3078 176.09 98.3078Z" fill="#6D61F2"/>
<path d="M176.09 101.949C176.245 101.949 176.37 101.761 176.37 101.529C176.37 101.297 176.245 101.109 176.09 101.109C175.935 101.109 175.81 101.297 175.81 101.529C175.81 101.761 175.935 101.949 176.09 101.949Z" fill="#6D61F2"/>
<path d="M177.771 99.7084C177.925 99.7084 178.051 99.5203 178.051 99.2883C178.051 99.0562 177.925 98.8681 177.771 98.8681C177.616 98.8681 177.49 99.0562 177.49 99.2883C177.49 99.5203 177.616 99.7084 177.771 99.7084Z" fill="#6D61F2"/>
<path d="M177.491 102.79C177.645 102.79 177.771 102.602 177.771 102.37C177.771 102.138 177.645 101.949 177.491 101.949C177.336 101.949 177.21 102.138 177.21 102.37C177.21 102.602 177.336 102.79 177.491 102.79Z" fill="#6D61F2"/>
<path d="M174.129 101.389C174.284 101.389 174.409 101.201 174.409 100.969C174.409 100.737 174.284 100.549 174.129 100.549C173.974 100.549 173.849 100.737 173.849 100.969C173.849 101.201 173.974 101.389 174.129 101.389Z" fill="#6D61F2"/>
<path d="M186.174 106.431C188.65 106.431 190.656 104.425 190.656 101.949C190.656 99.4741 188.65 97.4675 186.174 97.4675C183.699 97.4675 181.692 99.4741 181.692 101.949C181.692 104.425 183.699 106.431 186.174 106.431Z" fill="#6D61F2"/>
<path opacity="0.2" d="M189.536 102.23C189.536 102.671 189.449 103.108 189.28 103.516C189.111 103.924 188.863 104.294 188.551 104.606C188.239 104.919 187.869 105.166 187.461 105.335C187.053 105.504 186.616 105.591 186.174 105.591C185.733 105.591 185.296 105.504 184.888 105.335C184.48 105.166 184.11 104.919 183.797 104.606C183.485 104.294 183.238 103.924 183.069 103.516C182.9 103.108 182.813 102.671 182.813 102.23" fill="black"/>
<path opacity="0.2" d="M182.813 101.669C182.813 101.228 182.9 100.791 183.069 100.383C183.238 99.9751 183.485 99.6045 183.797 99.2924C184.11 98.9802 184.48 98.7326 184.888 98.5637C185.296 98.3948 185.733 98.3078 186.174 98.3078C186.616 98.3078 187.053 98.3948 187.461 98.5637C187.869 98.7326 188.239 98.9802 188.551 99.2924C188.863 99.6045 189.111 99.9751 189.28 100.383C189.449 100.791 189.536 101.228 189.536 101.669" fill="black"/>
<path d="M184.494 100.829C184.648 100.829 184.774 100.641 184.774 100.409C184.774 100.177 184.648 99.9886 184.494 99.9886C184.339 99.9886 184.214 100.177 184.214 100.409C184.214 100.641 184.339 100.829 184.494 100.829Z" fill="#6D61F2"/>
<path d="M186.174 100.269C186.329 100.269 186.455 100.081 186.455 99.8485C186.455 99.6164 186.329 99.4283 186.174 99.4283C186.02 99.4283 185.894 99.6164 185.894 99.8485C185.894 100.081 186.02 100.269 186.174 100.269Z" fill="#6D61F2"/>
<path d="M186.174 103.91C186.329 103.91 186.455 103.722 186.455 103.49C186.455 103.258 186.329 103.07 186.174 103.07C186.02 103.07 185.894 103.258 185.894 103.49C185.894 103.722 186.02 103.91 186.174 103.91Z" fill="#6D61F2"/>
<path d="M187.855 101.669C188.01 101.669 188.135 101.481 188.135 101.249C188.135 101.017 188.01 100.829 187.855 100.829C187.7 100.829 187.575 101.017 187.575 101.249C187.575 101.481 187.7 101.669 187.855 101.669Z" fill="#6D61F2"/>
<path d="M187.575 104.751C187.73 104.751 187.855 104.563 187.855 104.33C187.855 104.098 187.73 103.91 187.575 103.91C187.42 103.91 187.295 104.098 187.295 104.33C187.295 104.563 187.42 104.751 187.575 104.751Z" fill="#6D61F2"/>
<path d="M184.213 103.35C184.368 103.35 184.494 103.162 184.494 102.93C184.494 102.698 184.368 102.51 184.213 102.51C184.059 102.51 183.933 102.698 183.933 102.93C183.933 103.162 184.059 103.35 184.213 103.35Z" fill="#6D61F2"/>
<path d="M193.178 111.194C195.653 111.194 197.66 109.187 197.66 106.712C197.66 104.236 195.653 102.23 193.178 102.23C190.702 102.23 188.696 104.236 188.696 106.712C188.696 109.187 190.702 111.194 193.178 111.194Z" fill="#FF6584"/>
<path opacity="0.2" d="M196.539 106.992C196.539 107.883 196.185 108.738 195.554 109.369C194.924 109.999 194.069 110.353 193.177 110.353C192.286 110.353 191.431 109.999 190.8 109.369C190.17 108.738 189.816 107.883 189.816 106.992" fill="black"/>
<path opacity="0.2" d="M189.816 106.431C189.816 105.54 190.17 104.685 190.8 104.055C191.431 103.424 192.286 103.07 193.177 103.07C194.069 103.07 194.924 103.424 195.554 104.055C196.185 104.685 196.539 105.54 196.539 106.431" fill="black"/>
<path d="M191.497 105.591C191.651 105.591 191.777 105.403 191.777 105.171C191.777 104.939 191.651 104.751 191.497 104.751C191.342 104.751 191.217 104.939 191.217 105.171C191.217 105.403 191.342 105.591 191.497 105.591Z" fill="#FF6584"/>
<path d="M193.177 105.031C193.332 105.031 193.458 104.843 193.458 104.611C193.458 104.379 193.332 104.19 193.177 104.19C193.023 104.19 192.897 104.379 192.897 104.611C192.897 104.843 193.023 105.031 193.177 105.031Z" fill="#FF6584"/>
<path d="M193.177 108.672C193.332 108.672 193.458 108.484 193.458 108.252C193.458 108.02 193.332 107.832 193.177 107.832C193.023 107.832 192.897 108.02 192.897 108.252C192.897 108.484 193.023 108.672 193.177 108.672Z" fill="#FF6584"/>
<path d="M194.858 106.431C195.013 106.431 195.138 106.243 195.138 106.011C195.138 105.779 195.013 105.591 194.858 105.591C194.704 105.591 194.578 105.779 194.578 106.011C194.578 106.243 194.704 106.431 194.858 106.431Z" fill="#FF6584"/>
<path d="M194.578 109.513C194.733 109.513 194.858 109.325 194.858 109.093C194.858 108.861 194.733 108.672 194.578 108.672C194.423 108.672 194.298 108.861 194.298 109.093C194.298 109.325 194.423 109.513 194.578 109.513Z" fill="#FF6584"/>
<path d="M191.217 108.112C191.371 108.112 191.497 107.924 191.497 107.692C191.497 107.46 191.371 107.272 191.217 107.272C191.062 107.272 190.937 107.46 190.937 107.692C190.937 107.924 191.062 108.112 191.217 108.112Z" fill="#FF6584"/>
<path d="M135.539 90.812C136.196 90.812 136.727 90.2801 136.727 89.624C136.727 88.9679 136.196 88.436 135.539 88.436C134.883 88.436 134.351 88.9679 134.351 89.624C134.351 90.2801 134.883 90.812 135.539 90.812Z" fill="#3F3D56"/>
<path d="M167.832 132.745L139.3 124.833L140.393 120.773L168.925 128.686L167.832 132.745Z" fill="#F9A825"/>
<path d="M163.649 131.389C153.878 133.259 143.842 133.259 134.071 131.389V127.18C143.864 128.803 153.856 128.803 163.649 127.18V131.389Z" fill="#F9A825"/>
<path d="M166.689 118.763C156.919 120.634 146.882 120.634 137.112 118.763V114.555C146.904 116.178 156.897 116.178 166.689 114.555V118.763Z" fill="#F9A825"/>
<path d="M176.917 123.814C167.147 125.684 157.11 125.684 147.34 123.814V119.605C157.132 121.228 167.125 121.228 176.917 119.605V123.814Z" fill="#F9A825"/>
<path d="M179.405 128.583C169.635 130.453 159.598 130.453 149.828 128.583V124.375C159.62 125.998 169.613 125.998 179.405 124.375V128.583Z" fill="#F9A825"/>
<path d="M188.079 134.815L158.898 139.717L158.221 135.565L187.402 130.663L188.079 134.815Z" fill="#F9A825"/>
<path d="M183.72 135.355C175.63 141.187 166.511 145.439 156.844 147.89L155.113 144.066C164.696 141.383 173.774 137.148 181.988 131.531L183.72 135.355Z" fill="#F9A825"/>
<path d="M181.289 122.594C173.198 128.426 164.08 132.679 154.413 135.129L152.682 131.305C162.264 128.622 171.343 124.388 179.557 118.77L181.289 122.594Z" fill="#F9A825"/>
<path d="M192.66 122.849C184.57 128.68 175.451 132.933 165.784 135.383L164.053 131.56C173.635 128.876 182.714 124.642 190.928 119.025L192.66 122.849Z" fill="#F9A825"/>
<path d="M196.883 126.128C188.792 131.96 179.674 136.213 170.007 138.663L168.276 134.839C177.858 132.156 186.937 127.921 195.151 122.304L196.883 126.128Z" fill="#F9A825"/>
<path d="M161.523 117.917H160.123V119.317H161.523V117.917Z" fill="#00BF71"/>
<path d="M165.725 142.287H164.325V143.688H165.725V142.287Z" fill="#00BF71"/>
<path d="M143.315 117.917H141.915V119.317H143.315V117.917Z" fill="#00BF71"/>
<path d="M175.81 135.284H174.409V136.685H175.81V135.284Z" fill="#00BF71"/>
<path d="M176.65 127.161H175.25V128.561H176.65V127.161Z" fill="#00BF71"/>
<path d="M153.545 123.326L151.923 122.225L151.294 123.152L152.916 124.253L153.545 123.326Z" fill="#00BF71"/>
<path d="M170.073 126.407L168.45 125.306L167.821 126.233L169.444 127.334L170.073 126.407Z" fill="#00BF71"/>
<path d="M149.904 131.729L148.281 130.629L147.652 131.556L149.275 132.657L149.904 131.729Z" fill="#00BF71"/>
<path d="M160.176 131.648L161.277 130.025L160.35 129.396L159.249 131.019L160.176 131.648Z" fill="#00BF71"/>
<path d="M167.739 133.609L168.84 131.986L167.913 131.357L166.812 132.98L167.739 133.609Z" fill="#00BF71"/>
<path d="M187.91 126.885L189.011 125.263L188.084 124.634L186.983 126.256L187.91 126.885Z" fill="#00BF71"/>
<path d="M320.5 174.968H0.5V175.776H320.5V174.968Z" fill="#3F3D56"/>
</g>
<defs>
<clipPath id="clip0">
<rect width="320" height="174.951" fill="white" transform="translate(0.5 0.824677)"/>
</clipPath>
</defs>
</svg>
